<svg width="256" height="256" viewBox="0 0 256 256" fill="none" xmlns="http://www.w3.org/2000/svg">
<g clip-path="url(#clip0)">
<path d="M61.5 76L124 16.5L129.5 15L180 63.5L182.5 71L174.5 81.5L162 83L127.5 51.5L78 97L63.5 93L61.5 76Z" fill="#212121" stroke="black"/>
<path d="M194.5 21L204.5 9.5L230 4.5L245.5 16L250 33.5L248 48.5L236.5 61.5L215.5 63L198.5 54.5L190.5 36.5L194.5 21Z" fill="#212121" stroke="black"/>
<path d="M167 114.5L191 93L192.5 116.5L245.5 118L252.5 129L249 139.5L209 142H188L169 140.5L165 131L167 114.5Z" fill="#212121" stroke="black"/>
<path d="M103 132L119.5 121L136.5 135L183.5 187L170.5 208L110 238L96 232L94.5 213.5L143 183.5L103 143.5V132Z" fill="#212121" stroke="black"/>
<path d="M88.5 153L99 163.5L104.5 171L87.5 189.5L70 208L21.5 253L7.5 247L6 228.5L46 191L78.5 158L88.5 153Z" fill="#212121" stroke="black"/>
<path d="M221.642 69.1718C240.616 69.1718 256.001 53.7894 256.001 34.8127C256.001 15.838 240.616 0.453613 221.642 0.453613C202.665 0.453613 187.282 15.838 187.282 34.8127C187.303 53.7811 202.673 69.1508 221.642 69.1718ZM221.642 9.04338C235.873 9.04338 247.411 20.5817 247.411 34.8127C247.411 49.0458 235.873 60.582 221.642 60.582C207.408 60.582 195.872 49.0458 195.872 34.8127C195.885 20.588 207.415 9.05806 221.642 9.04338Z" fill="#212121"/>
<path d="M75.0011 101.014C80.0258 101.023 84.8491 99.0305 88.4016 95.4738L127.154 56.7171L153.022 82.5849C160.421 89.9835 172.414 89.9835 179.813 82.5849L179.84 82.5597C187.217 75.1569 187.217 63.1803 179.84 55.7775L142.335 18.2833C133.951 9.89906 120.357 9.89906 111.971 18.2833L61.5838 68.6664C56.169 74.0895 54.5543 82.241 57.4902 89.3208C60.4283 96.3986 67.3362 101.014 75.0011 101.014ZM67.657 74.7564L118.044 24.3544C123.075 19.3256 131.231 19.3256 136.264 24.3544L173.767 61.8717C177.797 65.9171 177.797 72.4622 173.767 76.5075L173.739 76.5348C169.692 80.5696 163.143 80.5696 159.095 76.5348L130.191 47.6261C128.513 45.9484 125.795 45.9484 124.118 47.6261L82.3242 89.4005C78.2202 93.3284 71.7464 93.3179 67.657 89.3754C63.6368 85.3321 63.6368 78.7996 67.657 74.7564Z" fill="#212121"/>
<path d="M238.821 112.121H195.872V90.6461C195.872 88.9097 194.826 87.3453 193.219 86.6805C191.615 86.0157 189.768 86.3827 188.541 87.6095L162.771 113.379C161.966 114.184 161.513 115.277 161.513 116.415V133.595C161.513 140.713 167.28 146.48 174.398 146.48H238.821C248.308 146.48 256.001 138.79 256.001 129.3C256.001 119.813 248.308 112.121 238.821 112.121ZM238.821 137.89H174.398C172.026 137.89 170.103 135.967 170.103 133.595V118.194L187.282 101.014V116.415C187.282 118.787 189.206 120.71 191.577 120.71H238.821C243.565 120.71 247.411 124.556 247.411 129.3C247.411 134.046 243.565 137.89 238.821 137.89Z" fill="#212121"/>
<path d="M108.807 168.384L88.0703 147.648C86.3653 146.037 83.6999 146.037 81.997 147.648L5.54896 224.098C-1.84965 231.494 -1.84965 243.488 5.54896 250.884V250.905C12.9497 258.293 24.9347 258.293 32.3354 250.905L108.783 174.457C110.467 172.786 110.476 170.068 108.807 168.384ZM26.2747 244.834C22.2315 248.869 15.6822 248.869 11.639 244.834H11.6222C7.57686 240.793 7.57686 234.238 11.6222 230.196L85.0295 156.758L99.6925 171.425L26.2747 244.834Z" fill="#212121"/>
<path d="M131.155 123.665C126.391 118.758 119.349 116.797 112.732 118.534C106.114 120.272 100.947 125.439 99.2059 132.058C97.4674 138.674 99.4261 145.716 104.335 150.483L137.891 184.031L97.2011 205.715C88.152 210.884 84.9938 222.403 90.1443 231.463L90.7545 232.589C94.1603 238.48 100.449 242.108 107.255 242.106C110.507 242.11 113.703 241.261 116.524 239.642L169.497 211.152L176.369 207.206C182.172 203.882 186.096 198.041 186.981 191.41C187.863 184.781 185.607 178.117 180.878 173.388L131.155 123.665ZM178.464 190.288C177.942 194.26 175.587 197.758 172.104 199.738L112.349 232.13C107.418 234.955 101.131 233.292 98.2454 228.397L97.631 227.271C94.8187 222.364 96.4713 216.108 101.341 213.231L147.043 188.883C148.245 188.244 149.071 187.071 149.27 185.725C149.469 184.379 149.021 183.018 148.056 182.055L110.404 144.41C106.351 140.356 106.351 133.784 110.404 129.73C114.458 125.676 121.031 125.676 125.084 129.73L174.828 179.461C177.676 182.296 179.022 186.308 178.464 190.288Z" fill="#212121"/>
</g>
<defs>
<clipPath id="clip0">
<rect width="256" height="256" fill="white"/>
</clipPath>
</defs>
</svg>
