<svg width="551" height="105" viewBox="0 0 551 105" fill="none" xmlns="http://www.w3.org/2000/svg">
<path d="M4.19531 81.8438C3.53906 81.4219 3.02344 80.8828 2.64844 80.2266C2.22656 79.5703 1.89844 78.8672 1.66406 78.1172C1.38281 77.3672 1.17188 76.5938 1.03125 75.7969C0.84375 74.9531 0.65625 74.1562 0.46875 73.4062C0.46875 72.75 0.609375 72.2812 0.890625 72C1.17188 71.6719 1.47656 71.3672 1.80469 71.0859C2.92969 71.0391 3.9375 70.9453 4.82812 70.8047C5.71875 70.6641 6.58594 70.5234 7.42969 70.3828C8.27344 70.2422 9.11719 70.125 9.96094 70.0312C10.8047 69.8906 11.7188 69.8203 12.7031 69.8203C13.4062 68.3672 14.0625 66.9844 14.6719 65.6719C15.2812 64.3125 15.8672 63.0234 16.4297 61.8047C16.7109 60.6328 17.0625 59.5547 17.4844 58.5703C17.9531 57.5391 18.3984 56.5781 18.8203 55.6875C19.2422 54.75 19.6172 53.8359 19.9453 52.9453C20.2734 52.0078 20.4844 51.0234 20.5781 49.9922C21.1406 48.3516 21.6328 46.8516 22.0547 45.4922C22.5234 44.0859 22.875 42.4219 23.1094 40.5C21.3281 40.7812 19.8984 41.0625 18.8203 41.3438C17.7422 41.5781 16.9688 41.8125 16.5 42.0469C15.5625 42 14.8125 41.8125 14.25 41.4844C13.7344 41.1562 13.3125 40.7578 12.9844 40.2891C12.6562 39.8203 12.375 39.2812 12.1406 38.6719C11.9062 38.0625 11.625 37.4297 11.2969 36.7734C11.4844 36.3516 11.5312 35.7422 11.4375 34.9453C11.3438 34.1016 11.0625 33.4922 10.5938 33.1172C10.9688 33.0234 11.25 32.7188 11.4375 32.2031C11.625 31.6406 11.6484 31.2188 11.5078 30.9375C12.3047 30.7031 13.1484 30.5625 14.0391 30.5156C14.9297 30.4219 15.7969 30.3516 16.6406 30.3047C17.5312 30.2109 18.375 30.1172 19.1719 30.0234C19.9688 29.8828 20.6484 29.625 21.2109 29.25C23.6484 29.1562 26.1797 29.0625 28.8047 28.9688C31.4766 28.875 33.9375 28.7578 36.1875 28.6172C37.0312 28.8984 37.9922 29.0391 39.0703 29.0391C40.1953 29.0391 41.2969 29.1094 42.375 29.25C43.5 29.3906 44.4844 29.6953 45.3281 30.1641C46.2188 30.6328 46.8281 31.4531 47.1562 32.625C47.8594 32.7188 48.375 32.9062 48.7031 33.1875C49.0781 33.4688 49.3125 33.8203 49.4062 34.2422C49.5 34.6172 49.5234 35.0625 49.4766 35.5781C49.4766 36.0469 49.4766 36.5156 49.4766 36.9844C48.7266 37.5469 47.7656 38.0156 46.5938 38.3906C45.4688 38.7188 44.2266 39 42.8672 39.2344C41.5078 39.4219 40.0781 39.5625 38.5781 39.6562C37.125 39.7031 35.6953 39.75 34.2891 39.7969C34.0547 41.3438 33.6328 43.1719 33.0234 45.2812C32.4609 47.3438 31.875 49.3828 31.2656 51.3984C30.6562 53.3672 30.1172 55.1484 29.6484 56.7422C29.2266 58.2891 29.0391 59.2969 29.0859 59.7656C28.6172 60.8438 28.2188 61.7578 27.8906 62.5078C27.6094 63.2578 27.3281 63.9609 27.0469 64.6172C26.8125 65.2734 26.5547 65.9297 26.2734 66.5859C26.0391 67.1953 25.7344 67.8984 25.3594 68.6953H30.1406C30.2344 69.2109 30.4453 69.5625 30.7734 69.75C31.1016 69.9375 31.4531 70.1016 31.8281 70.2422C32.2031 70.3828 32.5312 70.5703 32.8125 70.8047C33.1406 70.9922 33.3047 71.3203 33.3047 71.7891C34.1953 72.0234 34.7578 72.375 34.9922 72.8438C35.2266 73.3125 35.2734 73.8281 35.1328 74.3906C35.0391 74.9062 34.8047 75.4453 34.4297 76.0078C34.1016 76.5703 33.7734 77.0625 33.4453 77.4844C33.0234 77.3906 32.625 77.5078 32.25 77.8359C31.875 78.1172 31.5234 78.4453 31.1953 78.8203C29.8359 78.6328 28.5 78.6094 27.1875 78.75C25.875 78.8906 24.6562 79.0078 23.5312 79.1016C23.2969 79.1484 23.2031 79.2891 23.25 79.5234C23.2969 79.7109 23.25 79.8516 23.1094 79.9453C21.6562 79.4766 20.1562 79.2891 18.6094 79.3828C17.1094 79.4766 15.5625 79.7109 13.9688 80.0859C12.4219 80.4141 10.8281 80.7656 9.1875 81.1406C7.54688 81.5625 5.88281 81.7969 4.19531 81.8438ZM54.5391 68.2031C54.1172 68.2969 53.8125 68.5547 53.625 68.9766C53.4375 69.3516 53.25 69.75 53.0625 70.1719C52.9219 70.5938 52.7578 70.9922 52.5703 71.3672C52.4297 71.6953 52.1953 71.8594 51.8672 71.8594C51.8203 72.2344 51.6797 72.5625 51.4453 72.8438C51.2578 73.125 51.0703 73.4297 50.8828 73.7578C50.6953 74.0391 50.5547 74.3672 50.4609 74.7422C50.3672 75.0703 50.4141 75.4688 50.6016 75.9375C50.2266 76.2188 49.9922 76.6172 49.8984 77.1328C49.8047 77.6484 49.6875 78.1406 49.5469 78.6094C49.4531 79.0781 49.2656 79.4766 48.9844 79.8047C48.7031 80.1328 48.1875 80.2734 47.4375 80.2266C47.2969 80.4141 47.2734 80.5312 47.3672 80.5781C47.4609 80.625 47.5312 80.7891 47.5781 81.0703C47.0625 80.9766 46.6641 81 46.3828 81.1406C46.1484 81.3281 45.8438 81.4453 45.4688 81.4922C44.5781 81.2109 43.8281 80.7188 43.2188 80.0156C42.6562 79.3125 42.1406 78.5391 41.6719 77.6953C41.25 76.8047 40.8516 75.9141 40.4766 75.0234C40.1484 74.1328 39.8203 73.3594 39.4922 72.7031C39.6328 72.1875 39.6562 71.6953 39.5625 71.2266C39.4688 70.7109 39.3047 70.2891 39.0703 69.9609C41.3672 65.0859 43.875 59.8828 46.5938 54.3516C49.3125 48.8203 51.8906 43.3594 54.3281 37.9688C55.4062 38.3906 56.4609 38.8828 57.4922 39.4453C58.5703 39.9609 59.5312 40.5703 60.375 41.2734C61.2656 41.9766 62.0156 42.7969 62.625 43.7344C63.2344 44.625 63.6328 45.6328 63.8203 46.7578C63.7266 47.0391 63.6094 47.1562 63.4688 47.1094C63.375 47.0156 63.2812 47.0391 63.1875 47.1797C63.375 47.4141 63.4688 47.5781 63.4688 47.6719C63.5156 47.7656 63.5156 47.8594 63.4688 47.9531C63.4688 48.0469 63.4688 48.1875 63.4688 48.375C63.4688 48.5156 63.5391 48.7266 63.6797 49.0078C63.4922 48.9609 63.3516 48.9844 63.2578 49.0781C63.2109 49.1719 63.0703 49.1719 62.8359 49.0781C63.0234 49.5938 63.0703 50.0156 62.9766 50.3438C62.9297 50.6719 62.8359 50.9766 62.6953 51.2578C62.5547 51.4922 62.4375 51.7734 62.3438 52.1016C62.25 52.3828 62.2734 52.7578 62.4141 53.2266C62.2734 53.2266 62.1562 53.2734 62.0625 53.3672C62.0156 53.4141 61.9688 53.4844 61.9219 53.5781C61.875 53.625 61.8047 53.6953 61.7109 53.7891C61.6641 53.8359 61.5703 53.8359 61.4297 53.7891C61.5703 54.8203 61.6172 55.8516 61.5703 56.8828C61.5234 57.9141 61.4766 58.9688 61.4297 60.0469C61.4297 61.0781 61.4531 62.1797 61.5 63.3516C61.5469 64.4766 61.7109 65.6484 61.9922 66.8672C63.6797 65.8828 65.0156 64.6172 66 63.0703C67.0312 61.5234 67.8516 59.7891 68.4609 57.8672C69.1172 55.9453 69.6094 53.8828 69.9375 51.6797C70.2656 49.4766 70.6172 47.2266 70.9922 44.9297C71.4141 44.5078 71.7422 43.9922 71.9766 43.3828C72.2109 42.7734 72.4219 42.1406 72.6094 41.4844C72.7969 40.7812 72.9844 40.1016 73.1719 39.4453C73.3594 38.7422 73.5938 38.1094 73.875 37.5469C74.5781 37.6406 75.1641 37.875 75.6328 38.25C76.1484 38.5781 76.6172 38.9531 77.0391 39.375C77.4609 39.75 77.9062 40.125 78.375 40.5C78.8438 40.8281 79.4297 41.0391 80.1328 41.1328C80.6953 41.9297 81.2109 42.7031 81.6797 43.4531C82.1484 44.2031 82.4531 45 82.5938 45.8438C82.3594 46.2188 82.1719 46.6406 82.0312 47.1094C81.9375 47.5781 81.8203 48.0469 81.6797 48.5156C81.5391 48.9844 81.3516 49.4297 81.1172 49.8516C80.8828 50.2266 80.5547 50.5547 80.1328 50.8359C79.9922 52.0547 79.8047 53.1797 79.5703 54.2109C79.3828 55.1953 79.1719 56.1797 78.9375 57.1641C78.75 58.1484 78.5859 59.1797 78.4453 60.2578C78.3047 61.2891 78.2578 62.4375 78.3047 63.7031C77.9297 64.7812 77.5312 65.9297 77.1094 67.1484C76.6875 68.3672 76.3594 69.4688 76.125 70.4531C75.375 71.0625 74.7891 71.7891 74.3672 72.6328C73.9453 73.4766 73.5 74.3203 73.0312 75.1641C72.8438 75.3516 72.7266 75.3984 72.6797 75.3047C72.6328 75.2109 72.4688 75.1406 72.1875 75.0938C72.2344 75.2812 72.2344 75.4219 72.1875 75.5156C72.1406 75.6094 72.0703 75.7031 71.9766 75.7969C71.9297 75.8438 71.8828 75.9375 71.8359 76.0781C71.8359 76.2188 71.8828 76.4062 71.9766 76.6406C71.3203 76.9219 70.7344 77.3203 70.2188 77.8359C69.7031 78.3516 69.1406 78.8203 68.5312 79.2422C67.9688 79.6641 67.2656 79.9453 66.4219 80.0859C65.625 80.2266 64.5703 80.0625 63.2578 79.5938C61.3359 78.1875 59.625 76.5703 58.125 74.7422C56.6719 72.9141 55.4766 70.7344 54.5391 68.2031ZM95.6719 76.0781C95.9062 77.4844 95.8125 78.5859 95.3906 79.3828C95.0156 80.1797 94.4531 80.7656 93.7031 81.1406C93 81.5625 92.1797 81.7969 91.2422 81.8438C90.3047 81.8906 89.4141 81.8438 88.5703 81.7031C88.1016 81.0469 87.6797 80.2266 87.3047 79.2422C86.9297 78.2578 86.5781 77.25 86.25 76.2188C85.9219 75.1406 85.6172 74.0859 85.3359 73.0547C85.1016 72.0234 84.8906 71.1094 84.7031 70.3125C84.9375 69.75 85.0781 69.1172 85.125 68.4141C85.2188 67.6641 85.2656 66.9141 85.2656 66.1641C85.3125 65.4141 85.3359 64.6641 85.3359 63.9141C85.3828 63.1172 85.4531 62.3672 85.5469 61.6641C85.875 59.6953 86.3438 57.8203 86.9531 56.0391C87.6094 54.2578 88.125 52.4062 88.5 50.4844C88.5938 50.0625 88.5469 49.6641 88.3594 49.2891C88.2188 48.9141 88.1953 48.5625 88.2891 48.2344C88.3359 48.0469 88.4766 47.9297 88.7109 47.8828C88.9453 47.7891 89.0859 47.625 89.1328 47.3906C89.2734 46.875 89.2969 46.4531 89.2031 46.125C89.1562 45.7969 89.25 45.3984 89.4844 44.9297C89.7188 44.5547 90 44.0156 90.3281 43.3125C90.7031 42.5625 90.8438 41.7891 90.75 40.9922C91.1719 40.7109 91.5703 40.3828 91.9453 40.0078C92.3203 39.6328 92.6953 39.3047 93.0703 39.0234C93.4922 38.6953 93.9375 38.4141 94.4062 38.1797C94.9219 37.9453 95.5312 37.8281 96.2344 37.8281C96.6094 38.2969 96.8438 38.8125 96.9375 39.375C97.0781 39.9375 97.1953 40.5 97.2891 41.0625C97.4297 41.625 97.6172 42.1641 97.8516 42.6797C98.0859 43.1484 98.4844 43.5234 99.0469 43.8047C99.0469 44.1797 99.0469 44.6484 99.0469 45.2109C99.0469 45.7734 99.0703 46.3359 99.1172 46.8984C99.1641 47.4141 99.2578 47.9062 99.3984 48.375C99.5859 48.7969 99.8672 49.0781 100.242 49.2188C99.3984 51.4688 98.6016 53.6953 97.8516 55.8984C97.1484 58.1016 96.5625 60.3281 96.0938 62.5781C95.625 64.7812 95.3203 67.0078 95.1797 69.2578C95.0859 71.5078 95.25 73.7812 95.6719 76.0781ZM143.836 47.1797C142.664 47.1797 141.398 47.2734 140.039 47.4609C138.68 47.6016 137.344 47.7656 136.031 47.9531C135.094 48.0938 134.18 48.2109 133.289 48.3047C132.445 48.3984 131.672 48.4688 130.969 48.5156C130.641 49.5469 130.312 50.4609 129.984 51.2578C129.656 52.0547 129.305 52.8281 128.93 53.5781C128.555 54.375 128.203 55.1953 127.875 56.0391C127.594 56.8359 127.312 57.7031 127.031 58.6406C126.562 59.3906 126.164 60.0938 125.836 60.75C125.555 61.3594 125.32 62.0625 125.133 62.8594C124.57 63.5625 124.148 64.3125 123.867 65.1094C123.586 65.8594 123.375 66.5156 123.234 67.0781L122.953 67.9219C122.672 68.2031 122.508 68.4375 122.461 68.625C122.414 68.7656 122.297 68.9062 122.109 69.0469C122.062 69.5625 121.898 70.0781 121.617 70.5938C121.523 70.8281 121.453 71.0625 121.406 71.2969C121.359 71.4844 121.336 71.625 121.336 71.7188C121.336 72.1875 121.219 72.4922 120.984 72.6328C121.031 72.8672 121.031 73.125 120.984 73.4062C120.938 73.6406 120.891 73.875 120.844 74.1094C120.703 74.6719 120.656 75.1172 120.703 75.4453C120.844 75.6328 120.961 75.7969 121.055 75.9375C121.195 76.0781 121.289 76.2656 121.336 76.5C121.617 76.6875 121.828 76.8047 121.969 76.8516C122.156 76.9922 122.438 77.1562 122.812 77.3438L123.445 78.0469C123.68 79.4062 123.469 80.4844 122.812 81.2812C122.109 82.1719 120.914 82.6172 119.227 82.6172H118.383C118.148 82.3828 118.008 82.1953 117.961 82.0547C117.586 81.9141 117.281 81.7969 117.047 81.7031C116.812 81.6094 116.602 81.4219 116.414 81.1406C115.805 80.8594 115.312 80.625 114.938 80.4375L114.305 80.0859C114.305 79.5703 114.305 79.2891 114.305 79.2422C113.977 78.8203 113.719 78.3516 113.531 77.8359C113.391 77.3203 113.273 76.8047 113.18 76.2891C113.086 75.8672 112.969 75.4688 112.828 75.0938C112.734 74.7188 112.594 74.3906 112.406 74.1094C112.312 71.3906 112.57 69.0938 113.18 67.2188C113.789 65.3438 114.422 63.5391 115.078 61.8047C115.453 60.8672 115.828 59.9297 116.203 58.9922C116.578 58.0078 116.906 57 117.188 55.9688L117.82 55.2656C118.148 54.5156 118.406 53.9062 118.594 53.4375C118.828 52.9219 119.062 52.4062 119.297 51.8906C119.438 51.5625 119.555 51.2578 119.648 50.9766C119.789 50.6484 119.906 50.3672 120 50.1328C119.719 50.1328 119.461 50.1562 119.227 50.2031C118.992 50.2031 118.758 50.2266 118.523 50.2734C118.242 50.3203 117.984 50.3672 117.75 50.4141C117.516 50.4141 117.281 50.4141 117.047 50.4141C116.719 50.4141 116.484 50.3906 116.344 50.3438C115.828 50.5781 115.266 50.6953 114.656 50.6953H113.953C113.812 50.6953 113.672 50.6953 113.531 50.6953C113.438 50.6484 113.344 50.625 113.25 50.625C112.781 50.625 112.406 50.6953 112.125 50.8359C111.562 50.8359 111.023 50.8359 110.508 50.8359H109.805C109.711 50.8359 109.594 50.8594 109.453 50.9062C109.312 50.9062 109.195 50.9062 109.102 50.9062C108.773 50.9062 108.422 50.8828 108.047 50.8359C107.672 50.7422 107.273 50.5781 106.852 50.3438C106.289 49.5938 105.914 49.1953 105.727 49.1484L105.094 48.3047C105.047 48.0234 104.977 47.7656 104.883 47.5312C104.789 47.25 104.695 46.9453 104.602 46.6172C104.414 46.1484 104.227 45.6562 104.039 45.1406C103.898 44.5781 103.828 43.9219 103.828 43.1719C103.875 42.7969 103.969 42.5156 104.109 42.3281C104.25 42.1406 104.367 41.9766 104.461 41.8359L104.672 40.7812L105.586 40.8516H107.555C109.055 40.8516 110.578 40.8047 112.125 40.7109C113.672 40.5703 115.266 40.4297 116.906 40.2891C117.844 40.1953 118.781 40.1016 119.719 40.0078C120.703 39.9141 121.711 39.8203 122.742 39.7266C122.93 39.3047 123.117 38.9062 123.305 38.5312L124.008 38.1797C124.852 38.1328 125.438 38.25 125.766 38.5312C126.141 38.7656 126.445 39 126.68 39.2344C127.711 39.1406 128.742 39.0469 129.773 38.9531C130.852 38.8125 131.93 38.6484 133.008 38.4609C134.602 38.2266 136.195 38.0156 137.789 37.8281C139.43 37.6406 141 37.5469 142.5 37.5469C143.156 37.5469 143.789 37.5703 144.398 37.6172C145.008 37.6641 145.57 37.7344 146.086 37.8281L146.789 38.3203C146.93 38.6016 147.117 38.8594 147.352 39.0938C147.633 39.3281 147.914 39.5625 148.195 39.7969C148.758 40.3125 149.32 40.9219 149.883 41.625C150.445 42.3281 150.656 43.3594 150.516 44.7188C150.141 45.2812 149.859 45.6094 149.672 45.7031L149.039 46.5469L148.336 46.4766C148.055 46.4766 147.797 46.5234 147.562 46.6172C147.328 46.6641 147.094 46.7344 146.859 46.8281C146.672 46.9219 146.484 47.0156 146.297 47.1094C146.109 47.1562 145.898 47.2031 145.664 47.25C145.242 47.25 144.891 47.25 144.609 47.25C144.375 47.2031 144.117 47.1797 143.836 47.1797ZM153.258 76.0781C153.492 77.4844 153.398 78.5859 152.977 79.3828C152.602 80.1797 152.039 80.7656 151.289 81.1406C150.586 81.5625 149.766 81.7969 148.828 81.8438C147.891 81.8906 147 81.8438 146.156 81.7031C145.688 81.0469 145.266 80.2266 144.891 79.2422C144.516 78.2578 144.164 77.25 143.836 76.2188C143.508 75.1406 143.203 74.0859 142.922 73.0547C142.688 72.0234 142.477 71.1094 142.289 70.3125C142.523 69.75 142.664 69.1172 142.711 68.4141C142.805 67.6641 142.852 66.9141 142.852 66.1641C142.898 65.4141 142.922 64.6641 142.922 63.9141C142.969 63.1172 143.039 62.3672 143.133 61.6641C143.461 59.6953 143.93 57.8203 144.539 56.0391C145.195 54.2578 145.711 52.4062 146.086 50.4844C146.18 50.0625 146.133 49.6641 145.945 49.2891C145.805 48.9141 145.781 48.5625 145.875 48.2344C145.922 48.0469 146.062 47.9297 146.297 47.8828C146.531 47.7891 146.672 47.625 146.719 47.3906C146.859 46.875 146.883 46.4531 146.789 46.125C146.742 45.7969 146.836 45.3984 147.07 44.9297C147.305 44.5547 147.586 44.0156 147.914 43.3125C148.289 42.5625 148.43 41.7891 148.336 40.9922C148.758 40.7109 149.156 40.3828 149.531 40.0078C149.906 39.6328 150.281 39.3047 150.656 39.0234C151.078 38.6953 151.523 38.4141 151.992 38.1797C152.508 37.9453 153.117 37.8281 153.82 37.8281C154.195 38.2969 154.43 38.8125 154.523 39.375C154.664 39.9375 154.781 40.5 154.875 41.0625C155.016 41.625 155.203 42.1641 155.438 42.6797C155.672 43.1484 156.07 43.5234 156.633 43.8047C156.633 44.1797 156.633 44.6484 156.633 45.2109C156.633 45.7734 156.656 46.3359 156.703 46.8984C156.75 47.4141 156.844 47.9062 156.984 48.375C157.172 48.7969 157.453 49.0781 157.828 49.2188C156.984 51.4688 156.188 53.6953 155.438 55.8984C154.734 58.1016 154.148 60.3281 153.68 62.5781C153.211 64.7812 152.906 67.0078 152.766 69.2578C152.672 71.5078 152.836 73.7812 153.258 76.0781ZM198.609 75.0938C198.328 75.8906 197.906 76.7109 197.344 77.5547C196.828 78.3516 196.195 79.0781 195.445 79.7344C194.742 80.3438 193.945 80.8594 193.055 81.2812C192.164 81.7031 191.227 81.9375 190.242 81.9844C189.633 81.8438 189.211 81.6797 188.977 81.4922C188.789 81.3516 188.578 81.2109 188.344 81.0703C188.203 80.9766 188.062 80.9062 187.922 80.8594C187.828 80.7656 187.734 80.6953 187.641 80.6484L186.797 80.2969L187.078 79.3828C187.172 79.0078 187.148 78.7266 187.008 78.5391C186.867 78.3047 186.586 78 186.164 77.625C186.023 77.4844 185.883 77.3438 185.742 77.2031C185.602 77.0625 185.484 76.9219 185.391 76.7812L184.195 75.4453L186.094 74.9531C187.266 74.625 188.039 74.2031 188.414 73.6875C188.836 73.1719 189 72.3047 188.906 71.0859C187.969 70.8984 187.172 70.875 186.516 71.0156C185.906 71.1562 185.273 71.3203 184.617 71.5078C183.773 71.7422 182.906 71.9531 182.016 72.1406C181.172 72.2812 180.234 72.3516 179.203 72.3516C178.828 72.3516 178.477 72.3516 178.148 72.3516C177.82 72.3047 177.469 72.2578 177.094 72.2109L176.391 72.0703C176.297 71.5547 176.203 71.2734 176.109 71.2266C176.016 71.1328 175.922 71.0391 175.828 70.9453C175.594 70.7109 175.336 70.4062 175.055 70.0312C174.82 69.6094 174.773 69.0938 174.914 68.4844C174.68 68.0625 174.539 67.6406 174.492 67.2188C174.211 67.7812 174 68.3672 173.859 68.9766L173.578 69.6797L172.875 69.8203C172.781 69.8672 172.711 69.9844 172.664 70.1719C172.617 70.3125 172.594 70.4297 172.594 70.5234L172.242 71.7188C172.148 71.8125 172.055 71.9062 171.961 72C171.867 72.0469 171.773 72.1172 171.68 72.2109C171.586 72.6328 171.469 73.0547 171.328 73.4766C171.188 73.8984 171.047 74.2969 170.906 74.6719C170.672 75.2812 170.461 75.8906 170.273 76.5C170.133 77.0625 170.086 77.625 170.133 78.1875L169.852 78.9609C169.617 79.2422 169.359 79.4766 169.078 79.6641C168.797 79.8047 168.516 79.9453 168.234 80.0859C168.141 80.1797 168 80.2734 167.812 80.3672C167.672 80.4141 167.555 80.4609 167.461 80.5078L167.25 81.2812L166.406 81.4219C165.891 81.5156 165.516 81.5859 165.281 81.6328C165.094 81.6797 164.859 81.7031 164.578 81.7031L163.875 81.6328C163.359 81.2109 162.961 80.8828 162.68 80.6484C162.398 80.3672 162.07 80.1094 161.695 79.875C161.273 79.3125 161.039 78.8906 160.992 78.6094C160.945 78.3281 160.898 78.0703 160.852 77.8359C160.758 77.5547 160.711 77.3203 160.711 77.1328C160.664 76.9453 160.594 76.8047 160.5 76.7109L159.586 75.8672L160.359 75.2344L160.43 74.0391C161.367 71.6484 162.352 69.3516 163.383 67.1484C164.461 64.9453 165.562 62.6953 166.688 60.3984C167.062 59.6484 167.414 58.8984 167.742 58.1484C168.117 57.3984 168.492 56.6484 168.867 55.8984C168.82 55.7578 168.797 55.5938 168.797 55.4062C168.797 55.2188 168.844 55.0078 168.938 54.7734C169.453 53.9766 169.875 53.2734 170.203 52.6641C170.531 52.0078 170.859 51.3516 171.188 50.6953C171.562 49.8984 171.938 49.125 172.312 48.375C172.734 47.625 173.25 46.8516 173.859 46.0547L174.984 45.5625C175.125 45.5156 175.289 45.4688 175.477 45.4219C175.664 45.3281 175.875 45.2812 176.109 45.2812L177.164 45.4219C178.477 44.8125 179.625 43.9688 180.609 42.8906C181.594 41.7656 182.602 40.4297 183.633 38.8828L184.336 37.8984L185.25 38.4609C185.484 38.6016 185.812 38.7422 186.234 38.8828C186.656 38.9766 187.102 39.0938 187.57 39.2344C188.414 39.4219 189.211 39.6328 189.961 39.8672C190.711 40.1016 191.32 40.4531 191.789 40.9219C192.07 41.6719 192.234 42.2344 192.281 42.6094C192.328 42.9844 192.398 43.3594 192.492 43.7344C192.633 44.5312 192.75 45.3281 192.844 46.125C192.984 46.9219 193.078 47.8125 193.125 48.7969C193.359 49.5938 193.547 50.3906 193.688 51.1875C193.875 51.9375 194.039 52.7109 194.18 53.5078C194.414 54.6328 194.648 55.7344 194.883 56.8125C195.117 57.8438 195.422 58.8281 195.797 59.7656C196.172 59.7656 196.406 59.7891 196.5 59.8359C196.734 59.7422 196.969 59.6719 197.203 59.625C197.484 59.5781 197.789 59.5312 198.117 59.4844L198.891 59.4141L199.172 60.1172C199.219 60.3516 199.453 60.5859 199.875 60.8203C200.484 60.8672 200.93 61.0078 201.211 61.2422C201.492 61.4297 201.75 61.6406 201.984 61.875C202.172 62.0625 202.359 62.2031 202.547 62.2969L203.602 62.7188L203.039 63.7734C202.57 64.6172 201.891 65.4375 201 66.2344C200.156 66.9844 199.195 67.6172 198.117 68.1328C198.164 68.4141 198.188 68.6953 198.188 68.9766C198.234 69.2109 198.305 69.4688 198.398 69.75C198.539 70.5469 198.656 71.3672 198.75 72.2109C198.844 73.0547 198.844 73.9219 198.75 74.8125L198.609 75.0938ZM178.289 62.9297C179.695 62.8359 180.961 62.7422 182.086 62.6484C183.258 62.5078 184.547 62.2969 185.953 62.0156C185.625 60.6094 185.273 59.1562 184.898 57.6562C184.523 56.1094 184.125 54.5859 183.703 53.0859L183.281 53.7891C182.344 54.7734 181.43 55.875 180.539 57.0938C179.695 58.3125 178.969 59.4609 178.359 60.5391C178.078 60.9609 177.797 61.3828 177.516 61.8047C177.234 62.2266 176.977 62.6484 176.742 63.0703C177.023 63.0234 177.281 63 177.516 63C177.797 63 178.055 62.9766 178.289 62.9297ZM221.812 80.2266C220.5 80.6484 219.07 81.0703 217.523 81.4922C215.977 81.9141 214.43 82.125 212.883 82.125C210.539 82.125 208.688 81.5391 207.328 80.3672C207.094 79.8516 206.883 79.5 206.695 79.3125C206.555 79.125 206.414 78.9375 206.273 78.75C206.18 78.5156 206.109 78.2109 206.062 77.8359C205.5 77.1797 205.055 76.4297 204.727 75.5859C204.398 74.6953 204.164 73.8047 204.023 72.9141C203.93 71.9766 203.906 71.0391 203.953 70.1016C204.047 69.1641 204.211 68.2734 204.445 67.4297C204.539 67.2422 204.586 67.0547 204.586 66.8672C204.633 66.6797 204.68 66.4688 204.727 66.2344C204.914 65.4844 205.102 64.7578 205.289 64.0547C205.523 63.3516 205.828 62.7422 206.203 62.2266C206.016 61.8047 206.016 61.3359 206.203 60.8203C206.391 60.3047 206.602 59.8359 206.836 59.4141C207.492 57.6328 208.031 56.1328 208.453 54.9141C208.922 53.6484 209.391 52.4062 209.859 51.1875C210.656 49.0781 211.406 46.9922 212.109 44.9297C212.812 42.8672 213.445 40.6406 214.008 38.25C214.383 38.0156 214.664 37.8516 214.852 37.7578C215.133 37.6641 215.367 37.5938 215.555 37.5469C216.398 37.9688 217.383 38.3906 218.508 38.8125C219.633 39.1875 220.57 39.375 221.32 39.375C221.695 39.6094 221.93 39.7969 222.023 39.9375C222.117 40.0312 222.211 40.125 222.305 40.2188C222.82 40.8281 223.266 41.4609 223.641 42.1172C224.016 42.7266 224.133 43.5469 223.992 44.5781C223.711 45 223.5 45.2109 223.359 45.2109C223.125 46.1484 222.867 46.9453 222.586 47.6016C222.352 48.2578 222.094 48.9141 221.812 49.5703C221.484 50.2734 221.18 50.9766 220.898 51.6797C220.617 52.3828 220.383 53.25 220.195 54.2812C220.008 54.5156 219.867 54.7266 219.773 54.9141C219.727 55.1016 219.656 55.3125 219.562 55.5469C219.469 55.7812 219.352 56.0391 219.211 56.3203C219.117 56.5547 218.953 56.7656 218.719 56.9531C218.578 58.1719 218.344 59.1562 218.016 59.9062C217.734 60.6562 217.43 61.4062 217.102 62.1562C216.539 63.5156 216.023 64.875 215.555 66.2344C215.133 67.5938 214.875 69.1406 214.781 70.875C215.016 70.7812 215.227 70.7344 215.414 70.7344C215.648 70.7344 215.859 70.7344 216.047 70.7344C216.469 70.7344 216.961 70.8047 217.523 70.9453C218.93 70.1953 220.453 69.75 222.094 69.6094C223.781 69.4688 225.445 69.375 227.086 69.3281C227.742 69.3281 228.398 69.3281 229.055 69.3281C229.711 69.3281 230.32 69.2812 230.883 69.1875C231.305 69.4219 231.562 69.5625 231.656 69.6094C231.797 69.6094 231.984 69.6094 232.219 69.6094C232.547 69.6094 232.828 69.6328 233.062 69.6797C233.625 70.1953 234.164 70.5703 234.68 70.8047C235.195 71.0391 235.734 71.25 236.297 71.4375C236.812 71.625 237.305 71.8359 237.773 72.0703C238.289 72.2578 238.781 72.5391 239.25 72.9141L239.742 75.9375C240.07 76.3594 240.211 76.6406 240.164 76.7812C240.164 77.1562 240.07 77.4375 239.883 77.625L240.023 78.3984C239.32 78.5391 238.828 78.7031 238.547 78.8906C238.312 79.0781 238.078 79.2891 237.844 79.5234C237.469 79.5703 237.188 79.5938 237 79.5938C236.859 79.5938 236.719 79.5938 236.578 79.5938C235.922 79.5938 235.125 79.7109 234.188 79.9453C232.922 79.5234 231.609 79.3125 230.25 79.3125C229.734 79.3125 229.195 79.3359 228.633 79.3828C228.07 79.4297 227.508 79.4766 226.945 79.5234C226.383 79.6172 225.797 79.6875 225.188 79.7344C224.625 79.7812 224.039 79.8047 223.43 79.8047L221.812 80.2266ZM270.258 74.9531C270.023 75 269.812 74.8359 269.625 74.4609C269.438 74.0391 269.227 73.6406 268.992 73.2656H269.766C269.438 72.2344 269.344 71.2969 269.484 70.4531C269.672 69.5625 269.883 68.7188 270.117 67.9219C270.352 67.0781 270.539 66.2812 270.68 65.5312C270.867 64.7344 270.797 63.9141 270.469 63.0703C270.703 63.2109 270.867 63.1641 270.961 62.9297C271.102 62.6484 271.195 62.3203 271.242 61.9453C271.336 61.5234 271.359 61.1016 271.312 60.6797C271.312 60.2109 271.289 59.8359 271.242 59.5547C271.852 58.1016 272.32 56.6016 272.648 55.0547C273.023 53.5078 273.352 51.9844 273.633 50.4844C273.914 48.9375 274.219 47.4609 274.547 46.0547C274.922 44.6016 275.391 43.2422 275.953 41.9766C276.609 41.8828 277.289 41.9766 277.992 42.2578C278.742 42.4922 279.234 42.7969 279.469 43.1719C280.922 42.0469 282.211 40.6875 283.336 39.0938C284.461 37.5 285.586 35.9531 286.711 34.4531C287.883 32.9062 289.195 31.5469 290.648 30.375C292.102 29.2031 293.906 28.5 296.062 28.2656C297.188 29.0625 298.453 29.9297 299.859 30.8672C301.266 31.7578 302.414 32.8828 303.305 34.2422C303.68 34.4766 304.031 34.7344 304.359 35.0156C304.734 35.25 305.109 35.4844 305.484 35.7188V36.7734C306.141 37.3828 306.68 38.1094 307.102 38.9531C307.57 39.75 307.969 40.6172 308.297 41.5547C308.672 42.4453 309.023 43.3594 309.352 44.2969C309.68 45.2344 310.055 46.1016 310.477 46.8984C310.383 47.1797 310.336 47.4375 310.336 47.6719C310.383 47.8594 310.43 48.0703 310.477 48.3047C310.57 48.4922 310.641 48.7266 310.688 49.0078C310.734 49.2422 310.758 49.5469 310.758 49.9219C310.57 52.4062 309.75 54.4219 308.297 55.9688C306.891 57.4688 305.156 58.7109 303.094 59.6953C301.078 60.6328 298.922 61.4531 296.625 62.1562C294.328 62.8125 292.242 63.5391 290.367 64.3359C290.367 64.5234 290.461 64.6172 290.648 64.6172C290.883 64.6172 290.953 64.7578 290.859 65.0391C292.266 65.8828 293.344 66.5625 294.094 67.0781C294.891 67.5938 295.617 68.0391 296.273 68.4141C296.977 68.7422 297.727 69.0234 298.523 69.2578C299.367 69.4922 300.516 69.7734 301.969 70.1016C303.422 70.4297 304.547 70.7109 305.344 70.9453C306.188 71.1328 306.938 71.2969 307.594 71.4375C308.25 71.5312 308.953 71.625 309.703 71.7188C310.453 71.8125 311.461 71.9297 312.727 72.0703C313.242 72.5859 313.664 73.1953 313.992 73.8984C314.32 74.6016 314.555 75.3047 314.695 76.0078C314.836 76.7109 314.859 77.3906 314.766 78.0469C314.719 78.6562 314.531 79.1484 314.203 79.5234C314.25 79.7109 314.367 79.8047 314.555 79.8047C314.789 79.7578 315.023 79.7578 315.258 79.8047C314.93 80.0391 314.648 80.3203 314.414 80.6484C314.18 80.9766 313.945 81.3047 313.711 81.6328C313.477 81.9609 313.195 82.2656 312.867 82.5469C312.586 82.8281 312.211 82.9922 311.742 83.0391C310.055 83.6953 307.898 83.7188 305.273 83.1094C302.648 82.5 299.297 81.4219 295.219 79.875C293.203 79.125 291.562 78.4453 290.297 77.8359C289.031 77.2266 287.93 76.6406 286.992 76.0781C286.055 75.4688 285.188 74.8359 284.391 74.1797C283.594 73.4766 282.68 72.6562 281.648 71.7188C281.508 71.7656 281.414 71.8594 281.367 72C281.367 72.1406 281.297 72.2344 281.156 72.2812C280.922 74.1562 280.547 75.6797 280.031 76.8516C279.562 78.0234 278.859 79.2188 277.922 80.4375C277.172 80.2969 276.656 80.3672 276.375 80.6484C276.141 80.9297 275.836 81.1875 275.461 81.4219C274.992 81.5156 274.641 81.4922 274.406 81.3516C274.172 81.2578 273.961 81.1406 273.773 81C273.586 80.8594 273.375 80.7188 273.141 80.5781C272.906 80.4375 272.531 80.3906 272.016 80.4375C271.875 80.0156 271.734 79.6172 271.594 79.2422C271.453 78.8203 271.078 78.6328 270.469 78.6797C270.609 78.2578 270.656 77.9062 270.609 77.625C270.562 77.2969 270.492 77.0156 270.398 76.7812C270.305 76.5 270.211 76.2188 270.117 75.9375C270.07 75.6562 270.117 75.3281 270.258 74.9531ZM293.742 42.8203C293.133 43.7109 292.453 44.5312 291.703 45.2812C290.953 45.9844 290.203 46.7344 289.453 47.5312C288.75 48.2812 288.117 49.125 287.555 50.0625C286.992 50.9531 286.594 52.0312 286.359 53.2969C288.328 53.0625 290.391 52.5234 292.547 51.6797C294.703 50.7891 296.742 49.9453 298.664 49.1484C298.43 47.4141 297.82 46.0312 296.836 45C295.852 43.9219 294.82 43.1953 293.742 42.8203ZM354.914 40.9922C355.008 42.0234 355.172 42.9141 355.406 43.6641C355.641 44.4141 355.898 45.1406 356.18 45.8438C356.414 46.5 356.625 47.1562 356.812 47.8125C357.047 48.4219 357.211 49.1719 357.305 50.0625C356.93 51.2812 356.648 52.4062 356.461 53.4375C356.32 54.4688 356.156 55.5469 355.969 56.6719C355.219 58.3125 354.492 59.7656 353.789 61.0312C353.086 62.2969 352.523 63.3984 352.102 64.3359C351.867 64.5703 351.656 64.8516 351.469 65.1797C351.328 65.4609 351.164 65.7656 350.977 66.0938C350.883 66.2344 350.766 66.4453 350.625 66.7266C350.484 67.0078 350.367 67.1953 350.273 67.2891L348.867 66.7969L348.586 68.5547L347.602 68.8359L346.898 69.6797C346.008 71.2266 345.07 72.5391 344.086 73.6172C343.102 74.6484 341.977 75.5859 340.711 76.4297C339.492 77.2266 338.086 77.9766 336.492 78.6797C334.945 79.3828 333.188 80.1562 331.219 81C330.422 80.9062 329.719 80.8594 329.109 80.8594C328.547 80.8125 328.008 80.7656 327.492 80.7188C326.602 80.7188 325.5 80.6484 324.188 80.5078C324.047 80.1328 323.836 79.875 323.555 79.7344C323.273 79.5938 323.016 79.5234 322.781 79.5234C321.984 79.1484 321.375 78.6094 320.953 77.9062C320.578 77.1562 320.203 76.3594 319.828 75.5156C319.594 75 319.359 74.5312 319.125 74.1094C318.891 73.6406 318.633 73.1719 318.352 72.7031L319.547 72.3516L318 70.6641C317.906 70.5234 317.789 70.4062 317.648 70.3125C317.508 70.1719 317.391 70.0312 317.297 69.8906L317.227 68.7656C317.086 65.5312 317.016 62.5781 317.016 59.9062C317.062 57.1875 317.438 54.7734 318.141 52.6641V51.8906C318.281 50.8594 318.422 50.0156 318.562 49.3594C318.703 48.6562 318.82 48 318.914 47.3906C319.055 46.3594 319.266 45.3984 319.547 44.5078C320.203 44.3672 320.695 44.1094 321.023 43.7344C321.352 43.3125 321.633 42.9375 321.867 42.6094C322.523 42.5625 322.969 42.6562 323.203 42.8906C323.438 43.125 323.672 43.5 323.906 44.0156C324.141 44.4375 324.422 44.9062 324.75 45.4219C325.125 45.9375 325.664 46.3359 326.367 46.6172C326.461 46.9922 326.578 47.3906 326.719 47.8125C326.906 48.1875 327.094 48.6094 327.281 49.0781C327.656 49.875 327.984 50.7188 328.266 51.6094C328.594 52.4531 328.781 53.2734 328.828 54.0703C328.359 54.9609 327.984 55.9922 327.703 57.1641C327.469 58.3359 327.305 59.5312 327.211 60.75C327.164 61.9219 327.188 63.0703 327.281 64.1953C327.422 65.2734 327.633 66.1875 327.914 66.9375L328.336 67.8516L329.531 67.7109C330.938 67.3359 332.203 66.9375 333.328 66.5156C334.5 66.0469 335.578 65.5078 336.562 64.8984C337.547 64.2891 338.484 63.5859 339.375 62.7891C340.266 61.9453 341.203 60.9844 342.188 59.9062C343.172 58.8281 344.016 57.6094 344.719 56.25C345.469 54.8438 346.078 53.3906 346.547 51.8906C347.062 50.3906 347.438 48.9141 347.672 47.4609C347.953 45.9609 348.141 44.5547 348.234 43.2422C349.031 42.9609 349.43 42.3984 349.43 41.5547L349.289 40.7812C349.102 40.5 349.102 40.1719 349.289 39.7969C349.57 38.9062 350.227 38.2266 351.258 37.7578C352.008 38.2266 352.664 38.7422 353.227 39.3047C353.836 39.8672 354.398 40.4297 354.914 40.9922ZM369.961 68.2031C369.539 68.2969 369.234 68.5547 369.047 68.9766C368.859 69.3516 368.672 69.75 368.484 70.1719C368.344 70.5938 368.18 70.9922 367.992 71.3672C367.852 71.6953 367.617 71.8594 367.289 71.8594C367.242 72.2344 367.102 72.5625 366.867 72.8438C366.68 73.125 366.492 73.4297 366.305 73.7578C366.117 74.0391 365.977 74.3672 365.883 74.7422C365.789 75.0703 365.836 75.4688 366.023 75.9375C365.648 76.2188 365.414 76.6172 365.32 77.1328C365.227 77.6484 365.109 78.1406 364.969 78.6094C364.875 79.0781 364.688 79.4766 364.406 79.8047C364.125 80.1328 363.609 80.2734 362.859 80.2266C362.719 80.4141 362.695 80.5312 362.789 80.5781C362.883 80.625 362.953 80.7891 363 81.0703C362.484 80.9766 362.086 81 361.805 81.1406C361.57 81.3281 361.266 81.4453 360.891 81.4922C360 81.2109 359.25 80.7188 358.641 80.0156C358.078 79.3125 357.562 78.5391 357.094 77.6953C356.672 76.8047 356.273 75.9141 355.898 75.0234C355.57 74.1328 355.242 73.3594 354.914 72.7031C355.055 72.1875 355.078 71.6953 354.984 71.2266C354.891 70.7109 354.727 70.2891 354.492 69.9609C356.789 65.0859 359.297 59.8828 362.016 54.3516C364.734 48.8203 367.312 43.3594 369.75 37.9688C370.828 38.3906 371.883 38.8828 372.914 39.4453C373.992 39.9609 374.953 40.5703 375.797 41.2734C376.688 41.9766 377.438 42.7969 378.047 43.7344C378.656 44.625 379.055 45.6328 379.242 46.7578C379.148 47.0391 379.031 47.1562 378.891 47.1094C378.797 47.0156 378.703 47.0391 378.609 47.1797C378.797 47.4141 378.891 47.5781 378.891 47.6719C378.938 47.7656 378.938 47.8594 378.891 47.9531C378.891 48.0469 378.891 48.1875 378.891 48.375C378.891 48.5156 378.961 48.7266 379.102 49.0078C378.914 48.9609 378.773 48.9844 378.68 49.0781C378.633 49.1719 378.492 49.1719 378.258 49.0781C378.445 49.5938 378.492 50.0156 378.398 50.3438C378.352 50.6719 378.258 50.9766 378.117 51.2578C377.977 51.4922 377.859 51.7734 377.766 52.1016C377.672 52.3828 377.695 52.7578 377.836 53.2266C377.695 53.2266 377.578 53.2734 377.484 53.3672C377.438 53.4141 377.391 53.4844 377.344 53.5781C377.297 53.625 377.227 53.6953 377.133 53.7891C377.086 53.8359 376.992 53.8359 376.852 53.7891C376.992 54.8203 377.039 55.8516 376.992 56.8828C376.945 57.9141 376.898 58.9688 376.852 60.0469C376.852 61.0781 376.875 62.1797 376.922 63.3516C376.969 64.4766 377.133 65.6484 377.414 66.8672C379.102 65.8828 380.438 64.6172 381.422 63.0703C382.453 61.5234 383.273 59.7891 383.883 57.8672C384.539 55.9453 385.031 53.8828 385.359 51.6797C385.688 49.4766 386.039 47.2266 386.414 44.9297C386.836 44.5078 387.164 43.9922 387.398 43.3828C387.633 42.7734 387.844 42.1406 388.031 41.4844C388.219 40.7812 388.406 40.1016 388.594 39.4453C388.781 38.7422 389.016 38.1094 389.297 37.5469C390 37.6406 390.586 37.875 391.055 38.25C391.57 38.5781 392.039 38.9531 392.461 39.375C392.883 39.75 393.328 40.125 393.797 40.5C394.266 40.8281 394.852 41.0391 395.555 41.1328C396.117 41.9297 396.633 42.7031 397.102 43.4531C397.57 44.2031 397.875 45 398.016 45.8438C397.781 46.2188 397.594 46.6406 397.453 47.1094C397.359 47.5781 397.242 48.0469 397.102 48.5156C396.961 48.9844 396.773 49.4297 396.539 49.8516C396.305 50.2266 395.977 50.5547 395.555 50.8359C395.414 52.0547 395.227 53.1797 394.992 54.2109C394.805 55.1953 394.594 56.1797 394.359 57.1641C394.172 58.1484 394.008 59.1797 393.867 60.2578C393.727 61.2891 393.68 62.4375 393.727 63.7031C393.352 64.7812 392.953 65.9297 392.531 67.1484C392.109 68.3672 391.781 69.4688 391.547 70.4531C390.797 71.0625 390.211 71.7891 389.789 72.6328C389.367 73.4766 388.922 74.3203 388.453 75.1641C388.266 75.3516 388.148 75.3984 388.102 75.3047C388.055 75.2109 387.891 75.1406 387.609 75.0938C387.656 75.2812 387.656 75.4219 387.609 75.5156C387.562 75.6094 387.492 75.7031 387.398 75.7969C387.352 75.8438 387.305 75.9375 387.258 76.0781C387.258 76.2188 387.305 76.4062 387.398 76.6406C386.742 76.9219 386.156 77.3203 385.641 77.8359C385.125 78.3516 384.562 78.8203 383.953 79.2422C383.391 79.6641 382.688 79.9453 381.844 80.0859C381.047 80.2266 379.992 80.0625 378.68 79.5938C376.758 78.1875 375.047 76.5703 373.547 74.7422C372.094 72.9141 370.898 70.7344 369.961 68.2031ZM410.602 68.2031C410.18 68.2969 409.875 68.5547 409.688 68.9766C409.5 69.3516 409.312 69.75 409.125 70.1719C408.984 70.5938 408.82 70.9922 408.633 71.3672C408.492 71.6953 408.258 71.8594 407.93 71.8594C407.883 72.2344 407.742 72.5625 407.508 72.8438C407.32 73.125 407.133 73.4297 406.945 73.7578C406.758 74.0391 406.617 74.3672 406.523 74.7422C406.43 75.0703 406.477 75.4688 406.664 75.9375C406.289 76.2188 406.055 76.6172 405.961 77.1328C405.867 77.6484 405.75 78.1406 405.609 78.6094C405.516 79.0781 405.328 79.4766 405.047 79.8047C404.766 80.1328 404.25 80.2734 403.5 80.2266C403.359 80.4141 403.336 80.5312 403.43 80.5781C403.523 80.625 403.594 80.7891 403.641 81.0703C403.125 80.9766 402.727 81 402.445 81.1406C402.211 81.3281 401.906 81.4453 401.531 81.4922C400.641 81.2109 399.891 80.7188 399.281 80.0156C398.719 79.3125 398.203 78.5391 397.734 77.6953C397.312 76.8047 396.914 75.9141 396.539 75.0234C396.211 74.1328 395.883 73.3594 395.555 72.7031C395.695 72.1875 395.719 71.6953 395.625 71.2266C395.531 70.7109 395.367 70.2891 395.133 69.9609C397.43 65.0859 399.938 59.8828 402.656 54.3516C405.375 48.8203 407.953 43.3594 410.391 37.9688C411.469 38.3906 412.523 38.8828 413.555 39.4453C414.633 39.9609 415.594 40.5703 416.438 41.2734C417.328 41.9766 418.078 42.7969 418.688 43.7344C419.297 44.625 419.695 45.6328 419.883 46.7578C419.789 47.0391 419.672 47.1562 419.531 47.1094C419.438 47.0156 419.344 47.0391 419.25 47.1797C419.438 47.4141 419.531 47.5781 419.531 47.6719C419.578 47.7656 419.578 47.8594 419.531 47.9531C419.531 48.0469 419.531 48.1875 419.531 48.375C419.531 48.5156 419.602 48.7266 419.742 49.0078C419.555 48.9609 419.414 48.9844 419.32 49.0781C419.273 49.1719 419.133 49.1719 418.898 49.0781C419.086 49.5938 419.133 50.0156 419.039 50.3438C418.992 50.6719 418.898 50.9766 418.758 51.2578C418.617 51.4922 418.5 51.7734 418.406 52.1016C418.312 52.3828 418.336 52.7578 418.477 53.2266C418.336 53.2266 418.219 53.2734 418.125 53.3672C418.078 53.4141 418.031 53.4844 417.984 53.5781C417.938 53.625 417.867 53.6953 417.773 53.7891C417.727 53.8359 417.633 53.8359 417.492 53.7891C417.633 54.8203 417.68 55.8516 417.633 56.8828C417.586 57.9141 417.539 58.9688 417.492 60.0469C417.492 61.0781 417.516 62.1797 417.562 63.3516C417.609 64.4766 417.773 65.6484 418.055 66.8672C419.742 65.8828 421.078 64.6172 422.062 63.0703C423.094 61.5234 423.914 59.7891 424.523 57.8672C425.18 55.9453 425.672 53.8828 426 51.6797C426.328 49.4766 426.68 47.2266 427.055 44.9297C427.477 44.5078 427.805 43.9922 428.039 43.3828C428.273 42.7734 428.484 42.1406 428.672 41.4844C428.859 40.7812 429.047 40.1016 429.234 39.4453C429.422 38.7422 429.656 38.1094 429.938 37.5469C430.641 37.6406 431.227 37.875 431.695 38.25C432.211 38.5781 432.68 38.9531 433.102 39.375C433.523 39.75 433.969 40.125 434.438 40.5C434.906 40.8281 435.492 41.0391 436.195 41.1328C436.758 41.9297 437.273 42.7031 437.742 43.4531C438.211 44.2031 438.516 45 438.656 45.8438C438.422 46.2188 438.234 46.6406 438.094 47.1094C438 47.5781 437.883 48.0469 437.742 48.5156C437.602 48.9844 437.414 49.4297 437.18 49.8516C436.945 50.2266 436.617 50.5547 436.195 50.8359C436.055 52.0547 435.867 53.1797 435.633 54.2109C435.445 55.1953 435.234 56.1797 435 57.1641C434.812 58.1484 434.648 59.1797 434.508 60.2578C434.367 61.2891 434.32 62.4375 434.367 63.7031C433.992 64.7812 433.594 65.9297 433.172 67.1484C432.75 68.3672 432.422 69.4688 432.188 70.4531C431.438 71.0625 430.852 71.7891 430.43 72.6328C430.008 73.4766 429.562 74.3203 429.094 75.1641C428.906 75.3516 428.789 75.3984 428.742 75.3047C428.695 75.2109 428.531 75.1406 428.25 75.0938C428.297 75.2812 428.297 75.4219 428.25 75.5156C428.203 75.6094 428.133 75.7031 428.039 75.7969C427.992 75.8438 427.945 75.9375 427.898 76.0781C427.898 76.2188 427.945 76.4062 428.039 76.6406C427.383 76.9219 426.797 77.3203 426.281 77.8359C425.766 78.3516 425.203 78.8203 424.594 79.2422C424.031 79.6641 423.328 79.9453 422.484 80.0859C421.688 80.2266 420.633 80.0625 419.32 79.5938C417.398 78.1875 415.688 76.5703 414.188 74.7422C412.734 72.9141 411.539 70.7344 410.602 68.2031ZM451.734 76.0781C451.969 77.4844 451.875 78.5859 451.453 79.3828C451.078 80.1797 450.516 80.7656 449.766 81.1406C449.062 81.5625 448.242 81.7969 447.305 81.8438C446.367 81.8906 445.477 81.8438 444.633 81.7031C444.164 81.0469 443.742 80.2266 443.367 79.2422C442.992 78.2578 442.641 77.25 442.312 76.2188C441.984 75.1406 441.68 74.0859 441.398 73.0547C441.164 72.0234 440.953 71.1094 440.766 70.3125C441 69.75 441.141 69.1172 441.188 68.4141C441.281 67.6641 441.328 66.9141 441.328 66.1641C441.375 65.4141 441.398 64.6641 441.398 63.9141C441.445 63.1172 441.516 62.3672 441.609 61.6641C441.938 59.6953 442.406 57.8203 443.016 56.0391C443.672 54.2578 444.188 52.4062 444.562 50.4844C444.656 50.0625 444.609 49.6641 444.422 49.2891C444.281 48.9141 444.258 48.5625 444.352 48.2344C444.398 48.0469 444.539 47.9297 444.773 47.8828C445.008 47.7891 445.148 47.625 445.195 47.3906C445.336 46.875 445.359 46.4531 445.266 46.125C445.219 45.7969 445.312 45.3984 445.547 44.9297C445.781 44.5547 446.062 44.0156 446.391 43.3125C446.766 42.5625 446.906 41.7891 446.812 40.9922C447.234 40.7109 447.633 40.3828 448.008 40.0078C448.383 39.6328 448.758 39.3047 449.133 39.0234C449.555 38.6953 450 38.4141 450.469 38.1797C450.984 37.9453 451.594 37.8281 452.297 37.8281C452.672 38.2969 452.906 38.8125 453 39.375C453.141 39.9375 453.258 40.5 453.352 41.0625C453.492 41.625 453.68 42.1641 453.914 42.6797C454.148 43.1484 454.547 43.5234 455.109 43.8047C455.109 44.1797 455.109 44.6484 455.109 45.2109C455.109 45.7734 455.133 46.3359 455.18 46.8984C455.227 47.4141 455.32 47.9062 455.461 48.375C455.648 48.7969 455.93 49.0781 456.305 49.2188C455.461 51.4688 454.664 53.6953 453.914 55.8984C453.211 58.1016 452.625 60.3281 452.156 62.5781C451.688 64.7812 451.383 67.0078 451.242 69.2578C451.148 71.5078 451.312 73.7812 451.734 76.0781ZM474.305 68.2031C473.883 68.2969 473.578 68.5547 473.391 68.9766C473.203 69.3516 473.016 69.75 472.828 70.1719C472.688 70.5938 472.523 70.9922 472.336 71.3672C472.195 71.6953 471.961 71.8594 471.633 71.8594C471.586 72.2344 471.445 72.5625 471.211 72.8438C471.023 73.125 470.836 73.4297 470.648 73.7578C470.461 74.0391 470.32 74.3672 470.227 74.7422C470.133 75.0703 470.18 75.4688 470.367 75.9375C469.992 76.2188 469.758 76.6172 469.664 77.1328C469.57 77.6484 469.453 78.1406 469.312 78.6094C469.219 79.0781 469.031 79.4766 468.75 79.8047C468.469 80.1328 467.953 80.2734 467.203 80.2266C467.062 80.4141 467.039 80.5312 467.133 80.5781C467.227 80.625 467.297 80.7891 467.344 81.0703C466.828 80.9766 466.43 81 466.148 81.1406C465.914 81.3281 465.609 81.4453 465.234 81.4922C464.344 81.2109 463.594 80.7188 462.984 80.0156C462.422 79.3125 461.906 78.5391 461.438 77.6953C461.016 76.8047 460.617 75.9141 460.242 75.0234C459.914 74.1328 459.586 73.3594 459.258 72.7031C459.398 72.1875 459.422 71.6953 459.328 71.2266C459.234 70.7109 459.07 70.2891 458.836 69.9609C461.133 65.0859 463.641 59.8828 466.359 54.3516C469.078 48.8203 471.656 43.3594 474.094 37.9688C475.172 38.3906 476.227 38.8828 477.258 39.4453C478.336 39.9609 479.297 40.5703 480.141 41.2734C481.031 41.9766 481.781 42.7969 482.391 43.7344C483 44.625 483.398 45.6328 483.586 46.7578C483.492 47.0391 483.375 47.1562 483.234 47.1094C483.141 47.0156 483.047 47.0391 482.953 47.1797C483.141 47.4141 483.234 47.5781 483.234 47.6719C483.281 47.7656 483.281 47.8594 483.234 47.9531C483.234 48.0469 483.234 48.1875 483.234 48.375C483.234 48.5156 483.305 48.7266 483.445 49.0078C483.258 48.9609 483.117 48.9844 483.023 49.0781C482.977 49.1719 482.836 49.1719 482.602 49.0781C482.789 49.5938 482.836 50.0156 482.742 50.3438C482.695 50.6719 482.602 50.9766 482.461 51.2578C482.32 51.4922 482.203 51.7734 482.109 52.1016C482.016 52.3828 482.039 52.7578 482.18 53.2266C482.039 53.2266 481.922 53.2734 481.828 53.3672C481.781 53.4141 481.734 53.4844 481.688 53.5781C481.641 53.625 481.57 53.6953 481.477 53.7891C481.43 53.8359 481.336 53.8359 481.195 53.7891C481.336 54.8203 481.383 55.8516 481.336 56.8828C481.289 57.9141 481.242 58.9688 481.195 60.0469C481.195 61.0781 481.219 62.1797 481.266 63.3516C481.312 64.4766 481.477 65.6484 481.758 66.8672C483.445 65.8828 484.781 64.6172 485.766 63.0703C486.797 61.5234 487.617 59.7891 488.227 57.8672C488.883 55.9453 489.375 53.8828 489.703 51.6797C490.031 49.4766 490.383 47.2266 490.758 44.9297C491.18 44.5078 491.508 43.9922 491.742 43.3828C491.977 42.7734 492.188 42.1406 492.375 41.4844C492.562 40.7812 492.75 40.1016 492.938 39.4453C493.125 38.7422 493.359 38.1094 493.641 37.5469C494.344 37.6406 494.93 37.875 495.398 38.25C495.914 38.5781 496.383 38.9531 496.805 39.375C497.227 39.75 497.672 40.125 498.141 40.5C498.609 40.8281 499.195 41.0391 499.898 41.1328C500.461 41.9297 500.977 42.7031 501.445 43.4531C501.914 44.2031 502.219 45 502.359 45.8438C502.125 46.2188 501.938 46.6406 501.797 47.1094C501.703 47.5781 501.586 48.0469 501.445 48.5156C501.305 48.9844 501.117 49.4297 500.883 49.8516C500.648 50.2266 500.32 50.5547 499.898 50.8359C499.758 52.0547 499.57 53.1797 499.336 54.2109C499.148 55.1953 498.938 56.1797 498.703 57.1641C498.516 58.1484 498.352 59.1797 498.211 60.2578C498.07 61.2891 498.023 62.4375 498.07 63.7031C497.695 64.7812 497.297 65.9297 496.875 67.1484C496.453 68.3672 496.125 69.4688 495.891 70.4531C495.141 71.0625 494.555 71.7891 494.133 72.6328C493.711 73.4766 493.266 74.3203 492.797 75.1641C492.609 75.3516 492.492 75.3984 492.445 75.3047C492.398 75.2109 492.234 75.1406 491.953 75.0938C492 75.2812 492 75.4219 491.953 75.5156C491.906 75.6094 491.836 75.7031 491.742 75.7969C491.695 75.8438 491.648 75.9375 491.602 76.0781C491.602 76.2188 491.648 76.4062 491.742 76.6406C491.086 76.9219 490.5 77.3203 489.984 77.8359C489.469 78.3516 488.906 78.8203 488.297 79.2422C487.734 79.6641 487.031 79.9453 486.188 80.0859C485.391 80.2266 484.336 80.0625 483.023 79.5938C481.102 78.1875 479.391 76.5703 477.891 74.7422C476.438 72.9141 475.242 70.7344 474.305 68.2031ZM550.383 68.3438C549.258 70.3594 547.781 71.9297 545.953 73.0547C544.125 74.1328 542.109 75.0469 539.906 75.7969C537.703 76.5 535.383 77.1328 532.945 77.6953C530.555 78.2578 528.234 78.9844 525.984 79.875C525.328 79.875 524.742 79.8984 524.227 79.9453C523.758 79.9922 523.289 80.0625 522.82 80.1562C522.398 80.2031 521.977 80.2734 521.555 80.3672C521.133 80.4141 520.664 80.4609 520.148 80.5078C519.961 80.4609 519.844 80.5078 519.797 80.6484C519.75 80.7422 519.68 80.8359 519.586 80.9297C518.789 81.0703 518.062 81.1406 517.406 81.1406C516.797 81.1406 516.281 81.1406 515.859 81.1406C515.297 81.1406 514.711 81.2109 514.102 81.3516C513.539 81.5391 513.023 81.6094 512.555 81.5625C509.039 81.375 506.273 80.1328 504.258 77.8359C502.289 75.4922 501.188 72.2578 500.953 68.1328C501 67.8984 500.953 67.7578 500.812 67.7109C500.719 67.6641 500.625 67.5938 500.531 67.5C500.531 67.0312 500.578 66.6328 500.672 66.3047C500.812 65.9766 500.836 65.5547 500.742 65.0391C501.961 62.4609 503.344 60.0703 504.891 57.8672C506.438 55.6172 508.289 53.6484 510.445 51.9609C510.773 51.6797 511.055 51.3984 511.289 51.1172C511.523 50.8359 511.734 50.5547 511.922 50.2734C512.156 49.9922 512.414 49.7578 512.695 49.5703C512.977 49.3359 513.328 49.1719 513.75 49.0781C514.734 47.9531 515.906 46.9219 517.266 45.9844C518.625 45.0469 520.055 44.1562 521.555 43.3125C523.055 42.4219 524.531 41.5547 525.984 40.7109C527.484 39.8203 528.844 38.8359 530.062 37.7578C530.578 37.9922 530.953 38.0625 531.188 37.9688C531.422 37.875 531.68 37.875 531.961 37.9688C532.289 38.6719 532.734 39.1641 533.297 39.4453C533.906 39.7266 534.492 40.0312 535.055 40.3594C535.664 40.6406 536.227 40.9922 536.742 41.4141C537.258 41.8359 537.656 42.3984 537.938 43.1016C537.656 43.1016 537.516 43.2188 537.516 43.4531C537.562 43.6406 537.633 43.8516 537.727 44.0859C537.82 44.2734 537.844 44.4844 537.797 44.7188C537.797 44.9062 537.633 45 537.305 45C537.352 45.2344 537.492 45.375 537.727 45.4219C538.008 45.4219 538.148 45.5391 538.148 45.7734C538.148 46.0078 538.078 46.1953 537.938 46.3359C537.844 46.4766 537.844 46.7109 537.938 47.0391C537 47.6484 535.945 48.2344 534.773 48.7969C533.648 49.3594 532.453 49.9688 531.188 50.625C529.969 51.2344 528.68 51.9141 527.32 52.6641C526.008 53.3672 524.719 54.1875 523.453 55.125C522.188 56.0625 520.898 57.1172 519.586 58.2891C518.273 59.4141 517.008 60.6094 515.789 61.875C514.57 63.1406 513.422 64.4531 512.344 65.8125C511.266 67.125 510.352 68.4375 509.602 69.75C509.695 69.9844 509.789 70.1719 509.883 70.3125C510.023 70.4062 510.141 70.5703 510.234 70.8047C511.734 70.8984 513.117 70.8984 514.383 70.8047C515.695 70.6641 517.008 70.7344 518.32 71.0156C518.461 70.9219 518.555 70.7812 518.602 70.5938C518.648 70.4062 518.766 70.2656 518.953 70.1719C521.625 69.8906 524.109 69.4688 526.406 68.9062C528.703 68.2969 531.047 67.6641 533.438 67.0078C533.062 66.8672 532.711 66.75 532.383 66.6562C532.102 66.5156 531.82 66.3984 531.539 66.3047C531.305 66.0703 531.305 65.8828 531.539 65.7422C531.82 65.5547 532.055 65.3672 532.242 65.1797C531.586 64.8047 531.047 64.3359 530.625 63.7734C530.25 63.2109 530.016 62.4609 529.922 61.5234C530.203 61.2891 530.344 61.0078 530.344 60.6797C530.344 60.3516 530.203 60.0938 529.922 59.9062C529.734 59.8594 529.617 59.8594 529.57 59.9062C529.523 59.9531 529.477 60.0234 529.43 60.1172C529.43 60.2109 529.406 60.3047 529.359 60.3984C529.312 60.4453 529.195 60.4219 529.008 60.3281C529.055 59.9062 529.148 59.5547 529.289 59.2734C529.477 58.9922 529.617 58.6641 529.711 58.2891L534.562 55.0547C535.078 55.4297 535.711 55.8516 536.461 56.3203C537.211 56.7422 537.984 57.1875 538.781 57.6562C539.625 58.0781 540.469 58.5234 541.312 58.9922C542.203 59.4141 543.023 59.8359 543.773 60.2578C544.43 60.5391 545.016 60.9141 545.531 61.3828C546.047 61.8516 546.539 62.3438 547.008 62.8594C547.477 63.3281 547.945 63.7969 548.414 64.2656C548.93 64.7344 549.516 65.1328 550.172 65.4609C550.078 66.0703 550.102 66.5625 550.242 66.9375C550.383 67.3125 550.43 67.7812 550.383 68.3438Z" fill="#212121"/>
</svg>
