<svg width="279" height="32" viewBox="0 0 279 32" fill="none" xmlns="http://www.w3.org/2000/svg">
<path d="M2.59766 30.4219C2.26953 30.2109 2.01172 29.9414 1.82422 29.6133C1.61328 29.2852 1.44922 28.9336 1.33203 28.5586C1.19141 28.1836 1.08594 27.7969 1.01562 27.3984C0.921875 26.9766 0.828125 26.5781 0.734375 26.2031C0.734375 25.875 0.804688 25.6406 0.945312 25.5C1.08594 25.3359 1.23828 25.1836 1.40234 25.043C1.96484 25.0195 2.46875 24.9727 2.91406 24.9023C3.35938 24.832 3.79297 24.7617 4.21484 24.6914C4.63672 24.6211 5.05859 24.5625 5.48047 24.5156C5.90234 24.4453 6.35938 24.4102 6.85156 24.4102C7.20312 23.6836 7.53125 22.9922 7.83594 22.3359C8.14062 21.6562 8.43359 21.0117 8.71484 20.4023C8.85547 19.8164 9.03125 19.2773 9.24219 18.7852C9.47656 18.2695 9.69922 17.7891 9.91016 17.3438C10.1211 16.875 10.3086 16.418 10.4727 15.9727C10.6367 15.5039 10.7422 15.0117 10.7891 14.4961C11.0703 13.6758 11.3164 12.9258 11.5273 12.2461C11.7617 11.543 11.9375 10.7109 12.0547 9.75C11.1641 9.89062 10.4492 10.0312 9.91016 10.1719C9.37109 10.2891 8.98438 10.4062 8.75 10.5234C8.28125 10.5 7.90625 10.4062 7.625 10.2422C7.36719 10.0781 7.15625 9.87891 6.99219 9.64453C6.82812 9.41016 6.6875 9.14062 6.57031 8.83594C6.45312 8.53125 6.3125 8.21484 6.14844 7.88672C6.24219 7.67578 6.26562 7.37109 6.21875 6.97266C6.17188 6.55078 6.03125 6.24609 5.79688 6.05859C5.98438 6.01172 6.125 5.85938 6.21875 5.60156C6.3125 5.32031 6.32422 5.10938 6.25391 4.96875C6.65234 4.85156 7.07422 4.78125 7.51953 4.75781C7.96484 4.71094 8.39844 4.67578 8.82031 4.65234C9.26562 4.60547 9.6875 4.55859 10.0859 4.51172C10.4844 4.44141 10.8242 4.3125 11.1055 4.125C12.3242 4.07812 13.5898 4.03125 14.9023 3.98438C16.2383 3.9375 17.4688 3.87891 18.5938 3.80859C19.0156 3.94922 19.4961 4.01953 20.0352 4.01953C20.5977 4.01953 21.1484 4.05469 21.6875 4.125C22.25 4.19531 22.7422 4.34766 23.1641 4.58203C23.6094 4.81641 23.9141 5.22656 24.0781 5.8125C24.4297 5.85938 24.6875 5.95312 24.8516 6.09375C25.0391 6.23438 25.1562 6.41016 25.2031 6.62109C25.25 6.80859 25.2617 7.03125 25.2383 7.28906C25.2383 7.52344 25.2383 7.75781 25.2383 7.99219C24.8633 8.27344 24.3828 8.50781 23.7969 8.69531C23.2344 8.85937 22.6133 9 21.9336 9.11719C21.2539 9.21094 20.5391 9.28125 19.7891 9.32812C19.0625 9.35156 18.3477 9.375 17.6445 9.39844C17.5273 10.1719 17.3164 11.0859 17.0117 12.1406C16.7305 13.1719 16.4375 14.1914 16.1328 15.1992C15.8281 16.1836 15.5586 17.0742 15.3242 17.8711C15.1133 18.6445 15.0195 19.1484 15.043 19.3828C14.8086 19.9219 14.6094 20.3789 14.4453 20.7539C14.3047 21.1289 14.1641 21.4805 14.0234 21.8086C13.9062 22.1367 13.7773 22.4648 13.6367 22.793C13.5195 23.0977 13.3672 23.4492 13.1797 23.8477H15.5703C15.6172 24.1055 15.7227 24.2812 15.8867 24.375C16.0508 24.4688 16.2266 24.5508 16.4141 24.6211C16.6016 24.6914 16.7656 24.7852 16.9062 24.9023C17.0703 24.9961 17.1523 25.1602 17.1523 25.3945C17.5977 25.5117 17.8789 25.6875 17.9961 25.9219C18.1133 26.1562 18.1367 26.4141 18.0664 26.6953C18.0195 26.9531 17.9023 27.2227 17.7148 27.5039C17.5508 27.7852 17.3867 28.0312 17.2227 28.2422C17.0117 28.1953 16.8125 28.2539 16.625 28.418C16.4375 28.5586 16.2617 28.7227 16.0977 28.9102C15.418 28.8164 14.75 28.8047 14.0938 28.875C13.4375 28.9453 12.8281 29.0039 12.2656 29.0508C12.1484 29.0742 12.1016 29.1445 12.125 29.2617C12.1484 29.3555 12.125 29.4258 12.0547 29.4727C11.3281 29.2383 10.5781 29.1445 9.80469 29.1914C9.05469 29.2383 8.28125 29.3555 7.48438 29.543C6.71094 29.707 5.91406 29.8828 5.09375 30.0703C4.27344 30.2812 3.44141 30.3984 2.59766 30.4219ZM27.7695 23.6016C27.5586 23.6484 27.4062 23.7773 27.3125 23.9883C27.2188 24.1758 27.125 24.375 27.0312 24.5859C26.9609 24.7969 26.8789 24.9961 26.7852 25.1836C26.7148 25.3477 26.5977 25.4297 26.4336 25.4297C26.4102 25.6172 26.3398 25.7812 26.2227 25.9219C26.1289 26.0625 26.0352 26.2148 25.9414 26.3789C25.8477 26.5195 25.7773 26.6836 25.7305 26.8711C25.6836 27.0352 25.707 27.2344 25.8008 27.4688C25.6133 27.6094 25.4961 27.8086 25.4492 28.0664C25.4023 28.3242 25.3438 28.5703 25.2734 28.8047C25.2266 29.0391 25.1328 29.2383 24.9922 29.4023C24.8516 29.5664 24.5938 29.6367 24.2188 29.6133C24.1484 29.707 24.1367 29.7656 24.1836 29.7891C24.2305 29.8125 24.2656 29.8945 24.2891 30.0352C24.0312 29.9883 23.832 30 23.6914 30.0703C23.5742 30.1641 23.4219 30.2227 23.2344 30.2461C22.7891 30.1055 22.4141 29.8594 22.1094 29.5078C21.8281 29.1562 21.5703 28.7695 21.3359 28.3477C21.125 27.9023 20.9258 27.457 20.7383 27.0117C20.5742 26.5664 20.4102 26.1797 20.2461 25.8516C20.3164 25.5938 20.3281 25.3477 20.2812 25.1133C20.2344 24.8555 20.1523 24.6445 20.0352 24.4805C21.1836 22.043 22.4375 19.4414 23.7969 16.6758C25.1562 13.9102 26.4453 11.1797 27.6641 8.48438C28.2031 8.69531 28.7305 8.94141 29.2461 9.22266C29.7852 9.48047 30.2656 9.78516 30.6875 10.1367C31.1328 10.4883 31.5078 10.8984 31.8125 11.3672C32.1172 11.8125 32.3164 12.3164 32.4102 12.8789C32.3633 13.0195 32.3047 13.0781 32.2344 13.0547C32.1875 13.0078 32.1406 13.0195 32.0938 13.0898C32.1875 13.207 32.2344 13.2891 32.2344 13.3359C32.2578 13.3828 32.2578 13.4297 32.2344 13.4766C32.2344 13.5234 32.2344 13.5938 32.2344 13.6875C32.2344 13.7578 32.2695 13.8633 32.3398 14.0039C32.2461 13.9805 32.1758 13.9922 32.1289 14.0391C32.1055 14.0859 32.0352 14.0859 31.918 14.0391C32.0117 14.2969 32.0352 14.5078 31.9883 14.6719C31.9648 14.8359 31.918 14.9883 31.8477 15.1289C31.7773 15.2461 31.7188 15.3867 31.6719 15.5508C31.625 15.6914 31.6367 15.8789 31.707 16.1133C31.6367 16.1133 31.5781 16.1367 31.5312 16.1836C31.5078 16.207 31.4844 16.2422 31.4609 16.2891C31.4375 16.3125 31.4023 16.3477 31.3555 16.3945C31.332 16.418 31.2852 16.418 31.2148 16.3945C31.2852 16.9102 31.3086 17.4258 31.2852 17.9414C31.2617 18.457 31.2383 18.9844 31.2148 19.5234C31.2148 20.0391 31.2266 20.5898 31.25 21.1758C31.2734 21.7383 31.3555 22.3242 31.4961 22.9336C32.3398 22.4414 33.0078 21.8086 33.5 21.0352C34.0156 20.2617 34.4258 19.3945 34.7305 18.4336C35.0586 17.4727 35.3047 16.4414 35.4688 15.3398C35.6328 14.2383 35.8086 13.1133 35.9961 11.9648C36.207 11.7539 36.3711 11.4961 36.4883 11.1914C36.6055 10.8867 36.7109 10.5703 36.8047 10.2422C36.8984 9.89062 36.9922 9.55078 37.0859 9.22266C37.1797 8.87109 37.2969 8.55469 37.4375 8.27344C37.7891 8.32031 38.082 8.4375 38.3164 8.625C38.5742 8.78906 38.8086 8.97656 39.0195 9.1875C39.2305 9.375 39.4531 9.5625 39.6875 9.75C39.9219 9.91406 40.2148 10.0195 40.5664 10.0664C40.8477 10.4648 41.1055 10.8516 41.3398 11.2266C41.5742 11.6016 41.7266 12 41.7969 12.4219C41.6797 12.6094 41.5859 12.8203 41.5156 13.0547C41.4688 13.2891 41.4102 13.5234 41.3398 13.7578C41.2695 13.9922 41.1758 14.2148 41.0586 14.4258C40.9414 14.6133 40.7773 14.7773 40.5664 14.918C40.4961 15.5273 40.4023 16.0898 40.2852 16.6055C40.1914 17.0977 40.0859 17.5898 39.9688 18.082C39.875 18.5742 39.793 19.0898 39.7227 19.6289C39.6523 20.1445 39.6289 20.7188 39.6523 21.3516C39.4648 21.8906 39.2656 22.4648 39.0547 23.0742C38.8438 23.6836 38.6797 24.2344 38.5625 24.7266C38.1875 25.0312 37.8945 25.3945 37.6836 25.8164C37.4727 26.2383 37.25 26.6602 37.0156 27.082C36.9219 27.1758 36.8633 27.1992 36.8398 27.1523C36.8164 27.1055 36.7344 27.0703 36.5938 27.0469C36.6172 27.1406 36.6172 27.2109 36.5938 27.2578C36.5703 27.3047 36.5352 27.3516 36.4883 27.3984C36.4648 27.4219 36.4414 27.4688 36.418 27.5391C36.418 27.6094 36.4414 27.7031 36.4883 27.8203C36.1602 27.9609 35.8672 28.1602 35.6094 28.418C35.3516 28.6758 35.0703 28.9102 34.7656 29.1211C34.4844 29.332 34.1328 29.4727 33.7109 29.543C33.3125 29.6133 32.7852 29.5312 32.1289 29.2969C31.168 28.5938 30.3125 27.7852 29.5625 26.8711C28.8359 25.957 28.2383 24.8672 27.7695 23.6016ZM48.3359 27.5391C48.4531 28.2422 48.4062 28.793 48.1953 29.1914C48.0078 29.5898 47.7266 29.8828 47.3516 30.0703C47 30.2812 46.5898 30.3984 46.1211 30.4219C45.6523 30.4453 45.207 30.4219 44.7852 30.3516C44.5508 30.0234 44.3398 29.6133 44.1523 29.1211C43.9648 28.6289 43.7891 28.125 43.625 27.6094C43.4609 27.0703 43.3086 26.543 43.168 26.0273C43.0508 25.5117 42.9453 25.0547 42.8516 24.6562C42.9688 24.375 43.0391 24.0586 43.0625 23.707C43.1094 23.332 43.1328 22.957 43.1328 22.582C43.1562 22.207 43.168 21.832 43.168 21.457C43.1914 21.0586 43.2266 20.6836 43.2734 20.332C43.4375 19.3477 43.6719 18.4102 43.9766 17.5195C44.3047 16.6289 44.5625 15.7031 44.75 14.7422C44.7969 14.5312 44.7734 14.332 44.6797 14.1445C44.6094 13.957 44.5977 13.7812 44.6445 13.6172C44.668 13.5234 44.7383 13.4648 44.8555 13.4414C44.9727 13.3945 45.043 13.3125 45.0664 13.1953C45.1367 12.9375 45.1484 12.7266 45.1016 12.5625C45.0781 12.3984 45.125 12.1992 45.2422 11.9648C45.3594 11.7773 45.5 11.5078 45.6641 11.1562C45.8516 10.7813 45.9219 10.3945 45.875 9.99609C46.0859 9.85547 46.2852 9.69141 46.4727 9.50391C46.6602 9.31641 46.8477 9.15234 47.0352 9.01172C47.2461 8.84766 47.4688 8.70703 47.7031 8.58984C47.9609 8.47266 48.2656 8.41406 48.6172 8.41406C48.8047 8.64844 48.9219 8.90625 48.9688 9.1875C49.0391 9.46875 49.0977 9.75 49.1445 10.0312C49.2148 10.3125 49.3086 10.582 49.4258 10.8398C49.543 11.0742 49.7422 11.2617 50.0234 11.4023C50.0234 11.5898 50.0234 11.8242 50.0234 12.1055C50.0234 12.3867 50.0352 12.668 50.0586 12.9492C50.082 13.207 50.1289 13.4531 50.1992 13.6875C50.293 13.8984 50.4336 14.0391 50.6211 14.1094C50.1992 15.2344 49.8008 16.3477 49.4258 17.4492C49.0742 18.5508 48.7812 19.6641 48.5469 20.7891C48.3125 21.8906 48.1602 23.0039 48.0898 24.1289C48.043 25.2539 48.125 26.3906 48.3359 27.5391ZM72.418 13.0898C71.832 13.0898 71.1992 13.1367 70.5195 13.2305C69.8398 13.3008 69.1719 13.3828 68.5156 13.4766C68.0469 13.5469 67.5898 13.6055 67.1445 13.6523C66.7227 13.6992 66.3359 13.7344 65.9844 13.7578C65.8203 14.2734 65.6562 14.7305 65.4922 15.1289C65.3281 15.5273 65.1523 15.9141 64.9648 16.2891C64.7773 16.6875 64.6016 17.0977 64.4375 17.5195C64.2969 17.918 64.1562 18.3516 64.0156 18.8203C63.7812 19.1953 63.582 19.5469 63.418 19.875C63.2773 20.1797 63.1602 20.5312 63.0664 20.9297C62.7852 21.2812 62.5742 21.6562 62.4336 22.0547C62.293 22.4297 62.1875 22.7578 62.1172 23.0391L61.9766 23.4609C61.8359 23.6016 61.7539 23.7188 61.7305 23.8125C61.707 23.8828 61.6484 23.9531 61.5547 24.0234C61.5312 24.2812 61.4492 24.5391 61.3086 24.7969C61.2617 24.9141 61.2266 25.0312 61.2031 25.1484C61.1797 25.2422 61.168 25.3125 61.168 25.3594C61.168 25.5938 61.1094 25.7461 60.9922 25.8164C61.0156 25.9336 61.0156 26.0625 60.9922 26.2031C60.9688 26.3203 60.9453 26.4375 60.9219 26.5547C60.8516 26.8359 60.8281 27.0586 60.8516 27.2227C60.9219 27.3164 60.9805 27.3984 61.0273 27.4688C61.0977 27.5391 61.1445 27.6328 61.168 27.75C61.3086 27.8438 61.4141 27.9023 61.4844 27.9258C61.5781 27.9961 61.7188 28.0781 61.9062 28.1719L62.2227 28.5234C62.3398 29.2031 62.2344 29.7422 61.9062 30.1406C61.5547 30.5859 60.957 30.8086 60.1133 30.8086H59.6914C59.5742 30.6914 59.5039 30.5977 59.4805 30.5273C59.293 30.457 59.1406 30.3984 59.0234 30.3516C58.9062 30.3047 58.8008 30.2109 58.707 30.0703C58.4023 29.9297 58.1562 29.8125 57.9688 29.7188L57.6523 29.543C57.6523 29.2852 57.6523 29.1445 57.6523 29.1211C57.4883 28.9102 57.3594 28.6758 57.2656 28.418C57.1953 28.1602 57.1367 27.9023 57.0898 27.6445C57.043 27.4336 56.9844 27.2344 56.9141 27.0469C56.8672 26.8594 56.7969 26.6953 56.7031 26.5547C56.6562 25.1953 56.7852 24.0469 57.0898 23.1094C57.3945 22.1719 57.7109 21.2695 58.0391 20.4023C58.2266 19.9336 58.4141 19.4648 58.6016 18.9961C58.7891 18.5039 58.9531 18 59.0938 17.4844L59.4102 17.1328C59.5742 16.7578 59.7031 16.4531 59.7969 16.2188C59.9141 15.9609 60.0312 15.7031 60.1484 15.4453C60.2188 15.2812 60.2773 15.1289 60.3242 14.9883C60.3945 14.8242 60.4531 14.6836 60.5 14.5664C60.3594 14.5664 60.2305 14.5781 60.1133 14.6016C59.9961 14.6016 59.8789 14.6133 59.7617 14.6367C59.6211 14.6602 59.4922 14.6836 59.375 14.707C59.2578 14.707 59.1406 14.707 59.0234 14.707C58.8594 14.707 58.7422 14.6953 58.6719 14.6719C58.4141 14.7891 58.1328 14.8477 57.8281 14.8477H57.4766C57.4062 14.8477 57.3359 14.8477 57.2656 14.8477C57.2188 14.8242 57.1719 14.8125 57.125 14.8125C56.8906 14.8125 56.7031 14.8477 56.5625 14.918C56.2812 14.918 56.0117 14.918 55.7539 14.918H55.4023C55.3555 14.918 55.2969 14.9297 55.2266 14.9531C55.1562 14.9531 55.0977 14.9531 55.0508 14.9531C54.8867 14.9531 54.7109 14.9414 54.5234 14.918C54.3359 14.8711 54.1367 14.7891 53.9258 14.6719C53.6445 14.2969 53.457 14.0977 53.3633 14.0742L53.0469 13.6523C53.0234 13.5117 52.9883 13.3828 52.9414 13.2656C52.8945 13.125 52.8477 12.9727 52.8008 12.8086C52.707 12.5742 52.6133 12.3281 52.5195 12.0703C52.4492 11.7891 52.4141 11.4609 52.4141 11.0859C52.4375 10.8984 52.4844 10.7578 52.5547 10.6641C52.625 10.5703 52.6836 10.4883 52.7305 10.418L52.8359 9.89062L53.293 9.92578H54.2773C55.0273 9.92578 55.7891 9.90234 56.5625 9.85547C57.3359 9.78516 58.1328 9.71484 58.9531 9.64453C59.4219 9.59766 59.8906 9.55078 60.3594 9.50391C60.8516 9.45703 61.3555 9.41016 61.8711 9.36328C61.9648 9.15234 62.0586 8.95313 62.1523 8.76562L62.5039 8.58984C62.9258 8.56641 63.2188 8.625 63.3828 8.76562C63.5703 8.88281 63.7227 9 63.8398 9.11719C64.3555 9.07031 64.8711 9.02344 65.3867 8.97656C65.9258 8.90625 66.4648 8.82422 67.0039 8.73047C67.8008 8.61328 68.5977 8.50781 69.3945 8.41406C70.2148 8.32031 71 8.27344 71.75 8.27344C72.0781 8.27344 72.3945 8.28516 72.6992 8.30859C73.0039 8.33203 73.2852 8.36719 73.543 8.41406L73.8945 8.66016C73.9648 8.80078 74.0586 8.92969 74.1758 9.04688C74.3164 9.16406 74.457 9.28125 74.5977 9.39844C74.8789 9.65625 75.1602 9.96094 75.4414 10.3125C75.7227 10.6641 75.8281 11.1797 75.7578 11.8594C75.5703 12.1406 75.4297 12.3047 75.3359 12.3516L75.0195 12.7734L74.668 12.7383C74.5273 12.7383 74.3984 12.7617 74.2812 12.8086C74.1641 12.832 74.0469 12.8672 73.9297 12.9141C73.8359 12.9609 73.7422 13.0078 73.6484 13.0547C73.5547 13.0781 73.4492 13.1016 73.332 13.125C73.1211 13.125 72.9453 13.125 72.8047 13.125C72.6875 13.1016 72.5586 13.0898 72.418 13.0898ZM77.1289 27.5391C77.2461 28.2422 77.1992 28.793 76.9883 29.1914C76.8008 29.5898 76.5195 29.8828 76.1445 30.0703C75.793 30.2812 75.3828 30.3984 74.9141 30.4219C74.4453 30.4453 74 30.4219 73.5781 30.3516C73.3438 30.0234 73.1328 29.6133 72.9453 29.1211C72.7578 28.6289 72.582 28.125 72.418 27.6094C72.2539 27.0703 72.1016 26.543 71.9609 26.0273C71.8438 25.5117 71.7383 25.0547 71.6445 24.6562C71.7617 24.375 71.832 24.0586 71.8555 23.707C71.9023 23.332 71.9258 22.957 71.9258 22.582C71.9492 22.207 71.9609 21.832 71.9609 21.457C71.9844 21.0586 72.0195 20.6836 72.0664 20.332C72.2305 19.3477 72.4648 18.4102 72.7695 17.5195C73.0977 16.6289 73.3555 15.7031 73.543 14.7422C73.5898 14.5312 73.5664 14.332 73.4727 14.1445C73.4023 13.957 73.3906 13.7812 73.4375 13.6172C73.4609 13.5234 73.5312 13.4648 73.6484 13.4414C73.7656 13.3945 73.8359 13.3125 73.8594 13.1953C73.9297 12.9375 73.9414 12.7266 73.8945 12.5625C73.8711 12.3984 73.918 12.1992 74.0352 11.9648C74.1523 11.7773 74.293 11.5078 74.457 11.1562C74.6445 10.7813 74.7148 10.3945 74.668 9.99609C74.8789 9.85547 75.0781 9.69141 75.2656 9.50391C75.4531 9.31641 75.6406 9.15234 75.8281 9.01172C76.0391 8.84766 76.2617 8.70703 76.4961 8.58984C76.7539 8.47266 77.0586 8.41406 77.4102 8.41406C77.5977 8.64844 77.7148 8.90625 77.7617 9.1875C77.832 9.46875 77.8906 9.75 77.9375 10.0312C78.0078 10.3125 78.1016 10.582 78.2188 10.8398C78.3359 11.0742 78.5352 11.2617 78.8164 11.4023C78.8164 11.5898 78.8164 11.8242 78.8164 12.1055C78.8164 12.3867 78.8281 12.668 78.8516 12.9492C78.875 13.207 78.9219 13.4531 78.9922 13.6875C79.0859 13.8984 79.2266 14.0391 79.4141 14.1094C78.9922 15.2344 78.5938 16.3477 78.2188 17.4492C77.8672 18.5508 77.5742 19.6641 77.3398 20.7891C77.1055 21.8906 76.9531 23.0039 76.8828 24.1289C76.8359 25.2539 76.918 26.3906 77.1289 27.5391ZM99.8047 27.0469C99.6641 27.4453 99.4531 27.8555 99.1719 28.2773C98.9141 28.6758 98.5977 29.0391 98.2227 29.3672C97.8711 29.6719 97.4727 29.9297 97.0273 30.1406C96.582 30.3516 96.1133 30.4688 95.6211 30.4922C95.3164 30.4219 95.1055 30.3398 94.9883 30.2461C94.8945 30.1758 94.7891 30.1055 94.6719 30.0352C94.6016 29.9883 94.5312 29.9531 94.4609 29.9297C94.4141 29.8828 94.3672 29.8477 94.3203 29.8242L93.8984 29.6484L94.0391 29.1914C94.0859 29.0039 94.0742 28.8633 94.0039 28.7695C93.9336 28.6523 93.793 28.5 93.582 28.3125C93.5117 28.2422 93.4414 28.1719 93.3711 28.1016C93.3008 28.0312 93.2422 27.9609 93.1953 27.8906L92.5977 27.2227L93.5469 26.9766C94.1328 26.8125 94.5195 26.6016 94.707 26.3438C94.918 26.0859 95 25.6523 94.9531 25.043C94.4844 24.9492 94.0859 24.9375 93.7578 25.0078C93.4531 25.0781 93.1367 25.1602 92.8086 25.2539C92.3867 25.3711 91.9531 25.4766 91.5078 25.5703C91.0859 25.6406 90.6172 25.6758 90.1016 25.6758C89.9141 25.6758 89.7383 25.6758 89.5742 25.6758C89.4102 25.6523 89.2344 25.6289 89.0469 25.6055L88.6953 25.5352C88.6484 25.2773 88.6016 25.1367 88.5547 25.1133C88.5078 25.0664 88.4609 25.0195 88.4141 24.9727C88.2969 24.8555 88.168 24.7031 88.0273 24.5156C87.9102 24.3047 87.8867 24.0469 87.957 23.7422C87.8398 23.5312 87.7695 23.3203 87.7461 23.1094C87.6055 23.3906 87.5 23.6836 87.4297 23.9883L87.2891 24.3398L86.9375 24.4102C86.8906 24.4336 86.8555 24.4922 86.832 24.5859C86.8086 24.6562 86.7969 24.7148 86.7969 24.7617L86.6211 25.3594C86.5742 25.4062 86.5273 25.4531 86.4805 25.5C86.4336 25.5234 86.3867 25.5586 86.3398 25.6055C86.293 25.8164 86.2344 26.0273 86.1641 26.2383C86.0938 26.4492 86.0234 26.6484 85.9531 26.8359C85.8359 27.1406 85.7305 27.4453 85.6367 27.75C85.5664 28.0312 85.543 28.3125 85.5664 28.5938L85.4258 28.9805C85.3086 29.1211 85.1797 29.2383 85.0391 29.332C84.8984 29.4023 84.7578 29.4727 84.6172 29.543C84.5703 29.5898 84.5 29.6367 84.4062 29.6836C84.3359 29.707 84.2773 29.7305 84.2305 29.7539L84.125 30.1406L83.7031 30.2109C83.4453 30.2578 83.2578 30.293 83.1406 30.3164C83.0469 30.3398 82.9297 30.3516 82.7891 30.3516L82.4375 30.3164C82.1797 30.1055 81.9805 29.9414 81.8398 29.8242C81.6992 29.6836 81.5352 29.5547 81.3477 29.4375C81.1367 29.1562 81.0195 28.9453 80.9961 28.8047C80.9727 28.6641 80.9492 28.5352 80.9258 28.418C80.8789 28.2773 80.8555 28.1602 80.8555 28.0664C80.832 27.9727 80.7969 27.9023 80.75 27.8555L80.293 27.4336L80.6797 27.1172L80.7148 26.5195C81.1836 25.3242 81.6758 24.1758 82.1914 23.0742C82.7305 21.9727 83.2812 20.8477 83.8438 19.6992C84.0312 19.3242 84.207 18.9492 84.3711 18.5742C84.5586 18.1992 84.7461 17.8242 84.9336 17.4492C84.9102 17.3789 84.8984 17.2969 84.8984 17.2031C84.8984 17.1094 84.9219 17.0039 84.9688 16.8867C85.2266 16.4883 85.4375 16.1367 85.6016 15.832C85.7656 15.5039 85.9297 15.1758 86.0938 14.8477C86.2812 14.4492 86.4688 14.0625 86.6562 13.6875C86.8672 13.3125 87.125 12.9258 87.4297 12.5273L87.9922 12.2812C88.0625 12.2578 88.1445 12.2344 88.2383 12.2109C88.332 12.1641 88.4375 12.1406 88.5547 12.1406L89.082 12.2109C89.7383 11.9063 90.3125 11.4844 90.8047 10.9453C91.2969 10.3828 91.8008 9.71484 92.3164 8.94141L92.668 8.44922L93.125 8.73047C93.2422 8.80078 93.4062 8.87109 93.6172 8.94141C93.8281 8.98828 94.0508 9.04688 94.2852 9.11719C94.707 9.21094 95.1055 9.31641 95.4805 9.43359C95.8555 9.55078 96.1602 9.72656 96.3945 9.96094C96.5352 10.3359 96.6172 10.6172 96.6406 10.8047C96.6641 10.9922 96.6992 11.1797 96.7461 11.3672C96.8164 11.7656 96.875 12.1641 96.9219 12.5625C96.9922 12.9609 97.0391 13.4062 97.0625 13.8984C97.1797 14.2969 97.2734 14.6953 97.3438 15.0938C97.4375 15.4688 97.5195 15.8555 97.5898 16.2539C97.707 16.8164 97.8242 17.3672 97.9414 17.9062C98.0586 18.4219 98.2109 18.9141 98.3984 19.3828C98.5859 19.3828 98.7031 19.3945 98.75 19.418C98.8672 19.3711 98.9844 19.3359 99.1016 19.3125C99.2422 19.2891 99.3945 19.2656 99.5586 19.2422L99.9453 19.207L100.086 19.5586C100.109 19.6758 100.227 19.793 100.438 19.9102C100.742 19.9336 100.965 20.0039 101.105 20.1211C101.246 20.2148 101.375 20.3203 101.492 20.4375C101.586 20.5312 101.68 20.6016 101.773 20.6484L102.301 20.8594L102.02 21.3867C101.785 21.8086 101.445 22.2188 101 22.6172C100.578 22.9922 100.098 23.3086 99.5586 23.5664C99.582 23.707 99.5938 23.8477 99.5938 23.9883C99.6172 24.1055 99.6523 24.2344 99.6992 24.375C99.7695 24.7734 99.8281 25.1836 99.875 25.6055C99.9219 26.0273 99.9219 26.4609 99.875 26.9062L99.8047 27.0469ZM89.6445 20.9648C90.3477 20.918 90.9805 20.8711 91.543 20.8242C92.1289 20.7539 92.7734 20.6484 93.4766 20.5078C93.3125 19.8047 93.1367 19.0781 92.9492 18.3281C92.7617 17.5547 92.5625 16.793 92.3516 16.043L92.1406 16.3945C91.6719 16.8867 91.2148 17.4375 90.7695 18.0469C90.3477 18.6562 89.9844 19.2305 89.6797 19.7695C89.5391 19.9805 89.3984 20.1914 89.2578 20.4023C89.1172 20.6133 88.9883 20.8242 88.8711 21.0352C89.0117 21.0117 89.1406 21 89.2578 21C89.3984 21 89.5273 20.9883 89.6445 20.9648ZM111.406 29.6133C110.75 29.8242 110.035 30.0352 109.262 30.2461C108.488 30.457 107.715 30.5625 106.941 30.5625C105.77 30.5625 104.844 30.2695 104.164 29.6836C104.047 29.4258 103.941 29.25 103.848 29.1562C103.777 29.0625 103.707 28.9688 103.637 28.875C103.59 28.7578 103.555 28.6055 103.531 28.418C103.25 28.0898 103.027 27.7148 102.863 27.293C102.699 26.8477 102.582 26.4023 102.512 25.957C102.465 25.4883 102.453 25.0195 102.477 24.5508C102.523 24.082 102.605 23.6367 102.723 23.2148C102.77 23.1211 102.793 23.0273 102.793 22.9336C102.816 22.8398 102.84 22.7344 102.863 22.6172C102.957 22.2422 103.051 21.8789 103.145 21.5273C103.262 21.1758 103.414 20.8711 103.602 20.6133C103.508 20.4023 103.508 20.168 103.602 19.9102C103.695 19.6523 103.801 19.418 103.918 19.207C104.246 18.3164 104.516 17.5664 104.727 16.957C104.961 16.3242 105.195 15.7031 105.43 15.0938C105.828 14.0391 106.203 12.9961 106.555 11.9648C106.906 10.9336 107.223 9.82031 107.504 8.625C107.691 8.50781 107.832 8.42578 107.926 8.37891C108.066 8.33203 108.184 8.29687 108.277 8.27344C108.699 8.48438 109.191 8.69531 109.754 8.90625C110.316 9.09375 110.785 9.1875 111.16 9.1875C111.348 9.30469 111.465 9.39844 111.512 9.46875C111.559 9.51563 111.605 9.5625 111.652 9.60938C111.91 9.91406 112.133 10.2305 112.32 10.5586C112.508 10.8633 112.566 11.2734 112.496 11.7891C112.355 12 112.25 12.1055 112.18 12.1055C112.062 12.5742 111.934 12.9727 111.793 13.3008C111.676 13.6289 111.547 13.957 111.406 14.2852C111.242 14.6367 111.09 14.9883 110.949 15.3398C110.809 15.6914 110.691 16.125 110.598 16.6406C110.504 16.7578 110.434 16.8633 110.387 16.957C110.363 17.0508 110.328 17.1562 110.281 17.2734C110.234 17.3906 110.176 17.5195 110.105 17.6602C110.059 17.7773 109.977 17.8828 109.859 17.9766C109.789 18.5859 109.672 19.0781 109.508 19.4531C109.367 19.8281 109.215 20.2031 109.051 20.5781C108.77 21.2578 108.512 21.9375 108.277 22.6172C108.066 23.2969 107.938 24.0703 107.891 24.9375C108.008 24.8906 108.113 24.8672 108.207 24.8672C108.324 24.8672 108.43 24.8672 108.523 24.8672C108.734 24.8672 108.98 24.9023 109.262 24.9727C109.965 24.5977 110.727 24.375 111.547 24.3047C112.391 24.2344 113.223 24.1875 114.043 24.1641C114.371 24.1641 114.699 24.1641 115.027 24.1641C115.355 24.1641 115.66 24.1406 115.941 24.0938C116.152 24.2109 116.281 24.2812 116.328 24.3047C116.398 24.3047 116.492 24.3047 116.609 24.3047C116.773 24.3047 116.914 24.3164 117.031 24.3398C117.312 24.5977 117.582 24.7852 117.84 24.9023C118.098 25.0195 118.367 25.125 118.648 25.2188C118.906 25.3125 119.152 25.418 119.387 25.5352C119.645 25.6289 119.891 25.7695 120.125 25.957L120.371 27.4688C120.535 27.6797 120.605 27.8203 120.582 27.8906C120.582 28.0781 120.535 28.2188 120.441 28.3125L120.512 28.6992C120.16 28.7695 119.914 28.8516 119.773 28.9453C119.656 29.0391 119.539 29.1445 119.422 29.2617C119.234 29.2852 119.094 29.2969 119 29.2969C118.93 29.2969 118.859 29.2969 118.789 29.2969C118.461 29.2969 118.062 29.3555 117.594 29.4727C116.961 29.2617 116.305 29.1562 115.625 29.1562C115.367 29.1562 115.098 29.168 114.816 29.1914C114.535 29.2148 114.254 29.2383 113.973 29.2617C113.691 29.3086 113.398 29.3438 113.094 29.3672C112.812 29.3906 112.52 29.4023 112.215 29.4023L111.406 29.6133ZM135.629 26.9766C135.512 27 135.406 26.918 135.312 26.7305C135.219 26.5195 135.113 26.3203 134.996 26.1328H135.383C135.219 25.6172 135.172 25.1484 135.242 24.7266C135.336 24.2812 135.441 23.8594 135.559 23.4609C135.676 23.0391 135.77 22.6406 135.84 22.2656C135.934 21.8672 135.898 21.457 135.734 21.0352C135.852 21.1055 135.934 21.082 135.98 20.9648C136.051 20.8242 136.098 20.6602 136.121 20.4727C136.168 20.2617 136.18 20.0508 136.156 19.8398C136.156 19.6055 136.145 19.418 136.121 19.2773C136.426 18.5508 136.66 17.8008 136.824 17.0273C137.012 16.2539 137.176 15.4922 137.316 14.7422C137.457 13.9688 137.609 13.2305 137.773 12.5273C137.961 11.8008 138.195 11.1211 138.477 10.4883C138.805 10.4414 139.145 10.4883 139.496 10.6289C139.871 10.7461 140.117 10.8984 140.234 11.0859C140.961 10.5234 141.605 9.84375 142.168 9.04688C142.73 8.25 143.293 7.47656 143.855 6.72656C144.441 5.95312 145.098 5.27344 145.824 4.6875C146.551 4.10156 147.453 3.75 148.531 3.63281C149.094 4.03125 149.727 4.46484 150.43 4.93359C151.133 5.37891 151.707 5.94141 152.152 6.62109C152.34 6.73828 152.516 6.86719 152.68 7.00781C152.867 7.125 153.055 7.24219 153.242 7.35938V7.88672C153.57 8.19141 153.84 8.55469 154.051 8.97656C154.285 9.375 154.484 9.80859 154.648 10.2773C154.836 10.7227 155.012 11.1797 155.176 11.6484C155.34 12.1172 155.527 12.5508 155.738 12.9492C155.691 13.0898 155.668 13.2188 155.668 13.3359C155.691 13.4297 155.715 13.5352 155.738 13.6523C155.785 13.7461 155.82 13.8633 155.844 14.0039C155.867 14.1211 155.879 14.2734 155.879 14.4609C155.785 15.7031 155.375 16.7109 154.648 17.4844C153.945 18.2344 153.078 18.8555 152.047 19.3477C151.039 19.8164 149.961 20.2266 148.812 20.5781C147.664 20.9062 146.621 21.2695 145.684 21.668C145.684 21.7617 145.73 21.8086 145.824 21.8086C145.941 21.8086 145.977 21.8789 145.93 22.0195C146.633 22.4414 147.172 22.7812 147.547 23.0391C147.945 23.2969 148.309 23.5195 148.637 23.707C148.988 23.8711 149.363 24.0117 149.762 24.1289C150.184 24.2461 150.758 24.3867 151.484 24.5508C152.211 24.7148 152.773 24.8555 153.172 24.9727C153.594 25.0664 153.969 25.1484 154.297 25.2188C154.625 25.2656 154.977 25.3125 155.352 25.3594C155.727 25.4062 156.23 25.4648 156.863 25.5352C157.121 25.793 157.332 26.0977 157.496 26.4492C157.66 26.8008 157.777 27.1523 157.848 27.5039C157.918 27.8555 157.93 28.1953 157.883 28.5234C157.859 28.8281 157.766 29.0742 157.602 29.2617C157.625 29.3555 157.684 29.4023 157.777 29.4023C157.895 29.3789 158.012 29.3789 158.129 29.4023C157.965 29.5195 157.824 29.6602 157.707 29.8242C157.59 29.9883 157.473 30.1523 157.355 30.3164C157.238 30.4805 157.098 30.6328 156.934 30.7734C156.793 30.9141 156.605 30.9961 156.371 31.0195C155.527 31.3477 154.449 31.3594 153.137 31.0547C151.824 30.75 150.148 30.2109 148.109 29.4375C147.102 29.0625 146.281 28.7227 145.648 28.418C145.016 28.1133 144.465 27.8203 143.996 27.5391C143.527 27.2344 143.094 26.918 142.695 26.5898C142.297 26.2383 141.84 25.8281 141.324 25.3594C141.254 25.3828 141.207 25.4297 141.184 25.5C141.184 25.5703 141.148 25.6172 141.078 25.6406C140.961 26.5781 140.773 27.3398 140.516 27.9258C140.281 28.5117 139.93 29.1094 139.461 29.7188C139.086 29.6484 138.828 29.6836 138.688 29.8242C138.57 29.9648 138.418 30.0938 138.23 30.2109C137.996 30.2578 137.82 30.2461 137.703 30.1758C137.586 30.1289 137.48 30.0703 137.387 30C137.293 29.9297 137.188 29.8594 137.07 29.7891C136.953 29.7188 136.766 29.6953 136.508 29.7188C136.438 29.5078 136.367 29.3086 136.297 29.1211C136.227 28.9102 136.039 28.8164 135.734 28.8398C135.805 28.6289 135.828 28.4531 135.805 28.3125C135.781 28.1484 135.746 28.0078 135.699 27.8906C135.652 27.75 135.605 27.6094 135.559 27.4688C135.535 27.3281 135.559 27.1641 135.629 26.9766ZM147.371 10.9102C147.066 11.3555 146.727 11.7656 146.352 12.1406C145.977 12.4922 145.602 12.8672 145.227 13.2656C144.875 13.6406 144.559 14.0625 144.277 14.5312C143.996 14.9766 143.797 15.5156 143.68 16.1484C144.664 16.0312 145.695 15.7617 146.773 15.3398C147.852 14.8945 148.871 14.4727 149.832 14.0742C149.715 13.207 149.41 12.5156 148.918 12C148.426 11.4609 147.91 11.0977 147.371 10.9102ZM177.957 9.99609C178.004 10.5117 178.086 10.957 178.203 11.332C178.32 11.707 178.449 12.0703 178.59 12.4219C178.707 12.75 178.812 13.0781 178.906 13.4062C179.023 13.7109 179.105 14.0859 179.152 14.5312C178.965 15.1406 178.824 15.7031 178.73 16.2188C178.66 16.7344 178.578 17.2734 178.484 17.8359C178.109 18.6562 177.746 19.3828 177.395 20.0156C177.043 20.6484 176.762 21.1992 176.551 21.668C176.434 21.7852 176.328 21.9258 176.234 22.0898C176.164 22.2305 176.082 22.3828 175.988 22.5469C175.941 22.6172 175.883 22.7227 175.812 22.8633C175.742 23.0039 175.684 23.0977 175.637 23.1445L174.934 22.8984L174.793 23.7773L174.301 23.918L173.949 24.3398C173.504 25.1133 173.035 25.7695 172.543 26.3086C172.051 26.8242 171.488 27.293 170.855 27.7148C170.246 28.1133 169.543 28.4883 168.746 28.8398C167.973 29.1914 167.094 29.5781 166.109 30C165.711 29.9531 165.359 29.9297 165.055 29.9297C164.773 29.9062 164.504 29.8828 164.246 29.8594C163.801 29.8594 163.25 29.8242 162.594 29.7539C162.523 29.5664 162.418 29.4375 162.277 29.3672C162.137 29.2969 162.008 29.2617 161.891 29.2617C161.492 29.0742 161.188 28.8047 160.977 28.4531C160.789 28.0781 160.602 27.6797 160.414 27.2578C160.297 27 160.18 26.7656 160.062 26.5547C159.945 26.3203 159.816 26.0859 159.676 25.8516L160.273 25.6758L159.5 24.832C159.453 24.7617 159.395 24.7031 159.324 24.6562C159.254 24.5859 159.195 24.5156 159.148 24.4453L159.113 23.8828C159.043 22.2656 159.008 20.7891 159.008 19.4531C159.031 18.0938 159.219 16.8867 159.57 15.832V15.4453C159.641 14.9297 159.711 14.5078 159.781 14.1797C159.852 13.8281 159.91 13.5 159.957 13.1953C160.027 12.6797 160.133 12.1992 160.273 11.7539C160.602 11.6836 160.848 11.5547 161.012 11.3672C161.176 11.1562 161.316 10.9687 161.434 10.8047C161.762 10.7813 161.984 10.8281 162.102 10.9453C162.219 11.0625 162.336 11.25 162.453 11.5078C162.57 11.7188 162.711 11.9531 162.875 12.2109C163.062 12.4688 163.332 12.668 163.684 12.8086C163.73 12.9961 163.789 13.1953 163.859 13.4062C163.953 13.5938 164.047 13.8047 164.141 14.0391C164.328 14.4375 164.492 14.8594 164.633 15.3047C164.797 15.7266 164.891 16.1367 164.914 16.5352C164.68 16.9805 164.492 17.4961 164.352 18.082C164.234 18.668 164.152 19.2656 164.105 19.875C164.082 20.4609 164.094 21.0352 164.141 21.5977C164.211 22.1367 164.316 22.5938 164.457 22.9688L164.668 23.4258L165.266 23.3555C165.969 23.168 166.602 22.9688 167.164 22.7578C167.75 22.5234 168.289 22.2539 168.781 21.9492C169.273 21.6445 169.742 21.293 170.188 20.8945C170.633 20.4727 171.102 19.9922 171.594 19.4531C172.086 18.9141 172.508 18.3047 172.859 17.625C173.234 16.9219 173.539 16.1953 173.773 15.4453C174.031 14.6953 174.219 13.957 174.336 13.2305C174.477 12.4805 174.57 11.7773 174.617 11.1211C175.016 10.9805 175.215 10.6992 175.215 10.2773L175.145 9.89062C175.051 9.75 175.051 9.58594 175.145 9.39844C175.285 8.95313 175.613 8.61328 176.129 8.37891C176.504 8.61328 176.832 8.87109 177.113 9.15234C177.418 9.43359 177.699 9.71484 177.957 9.99609ZM185.48 23.6016C185.27 23.6484 185.117 23.7773 185.023 23.9883C184.93 24.1758 184.836 24.375 184.742 24.5859C184.672 24.7969 184.59 24.9961 184.496 25.1836C184.426 25.3477 184.309 25.4297 184.145 25.4297C184.121 25.6172 184.051 25.7812 183.934 25.9219C183.84 26.0625 183.746 26.2148 183.652 26.3789C183.559 26.5195 183.488 26.6836 183.441 26.8711C183.395 27.0352 183.418 27.2344 183.512 27.4688C183.324 27.6094 183.207 27.8086 183.16 28.0664C183.113 28.3242 183.055 28.5703 182.984 28.8047C182.938 29.0391 182.844 29.2383 182.703 29.4023C182.562 29.5664 182.305 29.6367 181.93 29.6133C181.859 29.707 181.848 29.7656 181.895 29.7891C181.941 29.8125 181.977 29.8945 182 30.0352C181.742 29.9883 181.543 30 181.402 30.0703C181.285 30.1641 181.133 30.2227 180.945 30.2461C180.5 30.1055 180.125 29.8594 179.82 29.5078C179.539 29.1562 179.281 28.7695 179.047 28.3477C178.836 27.9023 178.637 27.457 178.449 27.0117C178.285 26.5664 178.121 26.1797 177.957 25.8516C178.027 25.5938 178.039 25.3477 177.992 25.1133C177.945 24.8555 177.863 24.6445 177.746 24.4805C178.895 22.043 180.148 19.4414 181.508 16.6758C182.867 13.9102 184.156 11.1797 185.375 8.48438C185.914 8.69531 186.441 8.94141 186.957 9.22266C187.496 9.48047 187.977 9.78516 188.398 10.1367C188.844 10.4883 189.219 10.8984 189.523 11.3672C189.828 11.8125 190.027 12.3164 190.121 12.8789C190.074 13.0195 190.016 13.0781 189.945 13.0547C189.898 13.0078 189.852 13.0195 189.805 13.0898C189.898 13.207 189.945 13.2891 189.945 13.3359C189.969 13.3828 189.969 13.4297 189.945 13.4766C189.945 13.5234 189.945 13.5938 189.945 13.6875C189.945 13.7578 189.98 13.8633 190.051 14.0039C189.957 13.9805 189.887 13.9922 189.84 14.0391C189.816 14.0859 189.746 14.0859 189.629 14.0391C189.723 14.2969 189.746 14.5078 189.699 14.6719C189.676 14.8359 189.629 14.9883 189.559 15.1289C189.488 15.2461 189.43 15.3867 189.383 15.5508C189.336 15.6914 189.348 15.8789 189.418 16.1133C189.348 16.1133 189.289 16.1367 189.242 16.1836C189.219 16.207 189.195 16.2422 189.172 16.2891C189.148 16.3125 189.113 16.3477 189.066 16.3945C189.043 16.418 188.996 16.418 188.926 16.3945C188.996 16.9102 189.02 17.4258 188.996 17.9414C188.973 18.457 188.949 18.9844 188.926 19.5234C188.926 20.0391 188.938 20.5898 188.961 21.1758C188.984 21.7383 189.066 22.3242 189.207 22.9336C190.051 22.4414 190.719 21.8086 191.211 21.0352C191.727 20.2617 192.137 19.3945 192.441 18.4336C192.77 17.4727 193.016 16.4414 193.18 15.3398C193.344 14.2383 193.52 13.1133 193.707 11.9648C193.918 11.7539 194.082 11.4961 194.199 11.1914C194.316 10.8867 194.422 10.5703 194.516 10.2422C194.609 9.89062 194.703 9.55078 194.797 9.22266C194.891 8.87109 195.008 8.55469 195.148 8.27344C195.5 8.32031 195.793 8.4375 196.027 8.625C196.285 8.78906 196.52 8.97656 196.73 9.1875C196.941 9.375 197.164 9.5625 197.398 9.75C197.633 9.91406 197.926 10.0195 198.277 10.0664C198.559 10.4648 198.816 10.8516 199.051 11.2266C199.285 11.6016 199.438 12 199.508 12.4219C199.391 12.6094 199.297 12.8203 199.227 13.0547C199.18 13.2891 199.121 13.5234 199.051 13.7578C198.98 13.9922 198.887 14.2148 198.77 14.4258C198.652 14.6133 198.488 14.7773 198.277 14.918C198.207 15.5273 198.113 16.0898 197.996 16.6055C197.902 17.0977 197.797 17.5898 197.68 18.082C197.586 18.5742 197.504 19.0898 197.434 19.6289C197.363 20.1445 197.34 20.7188 197.363 21.3516C197.176 21.8906 196.977 22.4648 196.766 23.0742C196.555 23.6836 196.391 24.2344 196.273 24.7266C195.898 25.0312 195.605 25.3945 195.395 25.8164C195.184 26.2383 194.961 26.6602 194.727 27.082C194.633 27.1758 194.574 27.1992 194.551 27.1523C194.527 27.1055 194.445 27.0703 194.305 27.0469C194.328 27.1406 194.328 27.2109 194.305 27.2578C194.281 27.3047 194.246 27.3516 194.199 27.3984C194.176 27.4219 194.152 27.4688 194.129 27.5391C194.129 27.6094 194.152 27.7031 194.199 27.8203C193.871 27.9609 193.578 28.1602 193.32 28.418C193.062 28.6758 192.781 28.9102 192.477 29.1211C192.195 29.332 191.844 29.4727 191.422 29.543C191.023 29.6133 190.496 29.5312 189.84 29.2969C188.879 28.5938 188.023 27.7852 187.273 26.8711C186.547 25.957 185.949 24.8672 185.48 23.6016ZM205.801 23.6016C205.59 23.6484 205.438 23.7773 205.344 23.9883C205.25 24.1758 205.156 24.375 205.062 24.5859C204.992 24.7969 204.91 24.9961 204.816 25.1836C204.746 25.3477 204.629 25.4297 204.465 25.4297C204.441 25.6172 204.371 25.7812 204.254 25.9219C204.16 26.0625 204.066 26.2148 203.973 26.3789C203.879 26.5195 203.809 26.6836 203.762 26.8711C203.715 27.0352 203.738 27.2344 203.832 27.4688C203.645 27.6094 203.527 27.8086 203.48 28.0664C203.434 28.3242 203.375 28.5703 203.305 28.8047C203.258 29.0391 203.164 29.2383 203.023 29.4023C202.883 29.5664 202.625 29.6367 202.25 29.6133C202.18 29.707 202.168 29.7656 202.215 29.7891C202.262 29.8125 202.297 29.8945 202.32 30.0352C202.062 29.9883 201.863 30 201.723 30.0703C201.605 30.1641 201.453 30.2227 201.266 30.2461C200.82 30.1055 200.445 29.8594 200.141 29.5078C199.859 29.1562 199.602 28.7695 199.367 28.3477C199.156 27.9023 198.957 27.457 198.77 27.0117C198.605 26.5664 198.441 26.1797 198.277 25.8516C198.348 25.5938 198.359 25.3477 198.312 25.1133C198.266 24.8555 198.184 24.6445 198.066 24.4805C199.215 22.043 200.469 19.4414 201.828 16.6758C203.188 13.9102 204.477 11.1797 205.695 8.48438C206.234 8.69531 206.762 8.94141 207.277 9.22266C207.816 9.48047 208.297 9.78516 208.719 10.1367C209.164 10.4883 209.539 10.8984 209.844 11.3672C210.148 11.8125 210.348 12.3164 210.441 12.8789C210.395 13.0195 210.336 13.0781 210.266 13.0547C210.219 13.0078 210.172 13.0195 210.125 13.0898C210.219 13.207 210.266 13.2891 210.266 13.3359C210.289 13.3828 210.289 13.4297 210.266 13.4766C210.266 13.5234 210.266 13.5938 210.266 13.6875C210.266 13.7578 210.301 13.8633 210.371 14.0039C210.277 13.9805 210.207 13.9922 210.16 14.0391C210.137 14.0859 210.066 14.0859 209.949 14.0391C210.043 14.2969 210.066 14.5078 210.02 14.6719C209.996 14.8359 209.949 14.9883 209.879 15.1289C209.809 15.2461 209.75 15.3867 209.703 15.5508C209.656 15.6914 209.668 15.8789 209.738 16.1133C209.668 16.1133 209.609 16.1367 209.562 16.1836C209.539 16.207 209.516 16.2422 209.492 16.2891C209.469 16.3125 209.434 16.3477 209.387 16.3945C209.363 16.418 209.316 16.418 209.246 16.3945C209.316 16.9102 209.34 17.4258 209.316 17.9414C209.293 18.457 209.27 18.9844 209.246 19.5234C209.246 20.0391 209.258 20.5898 209.281 21.1758C209.305 21.7383 209.387 22.3242 209.527 22.9336C210.371 22.4414 211.039 21.8086 211.531 21.0352C212.047 20.2617 212.457 19.3945 212.762 18.4336C213.09 17.4727 213.336 16.4414 213.5 15.3398C213.664 14.2383 213.84 13.1133 214.027 11.9648C214.238 11.7539 214.402 11.4961 214.52 11.1914C214.637 10.8867 214.742 10.5703 214.836 10.2422C214.93 9.89062 215.023 9.55078 215.117 9.22266C215.211 8.87109 215.328 8.55469 215.469 8.27344C215.82 8.32031 216.113 8.4375 216.348 8.625C216.605 8.78906 216.84 8.97656 217.051 9.1875C217.262 9.375 217.484 9.5625 217.719 9.75C217.953 9.91406 218.246 10.0195 218.598 10.0664C218.879 10.4648 219.137 10.8516 219.371 11.2266C219.605 11.6016 219.758 12 219.828 12.4219C219.711 12.6094 219.617 12.8203 219.547 13.0547C219.5 13.2891 219.441 13.5234 219.371 13.7578C219.301 13.9922 219.207 14.2148 219.09 14.4258C218.973 14.6133 218.809 14.7773 218.598 14.918C218.527 15.5273 218.434 16.0898 218.316 16.6055C218.223 17.0977 218.117 17.5898 218 18.082C217.906 18.5742 217.824 19.0898 217.754 19.6289C217.684 20.1445 217.66 20.7188 217.684 21.3516C217.496 21.8906 217.297 22.4648 217.086 23.0742C216.875 23.6836 216.711 24.2344 216.594 24.7266C216.219 25.0312 215.926 25.3945 215.715 25.8164C215.504 26.2383 215.281 26.6602 215.047 27.082C214.953 27.1758 214.895 27.1992 214.871 27.1523C214.848 27.1055 214.766 27.0703 214.625 27.0469C214.648 27.1406 214.648 27.2109 214.625 27.2578C214.602 27.3047 214.566 27.3516 214.52 27.3984C214.496 27.4219 214.473 27.4688 214.449 27.5391C214.449 27.6094 214.473 27.7031 214.52 27.8203C214.191 27.9609 213.898 28.1602 213.641 28.418C213.383 28.6758 213.102 28.9102 212.797 29.1211C212.516 29.332 212.164 29.4727 211.742 29.543C211.344 29.6133 210.816 29.5312 210.16 29.2969C209.199 28.5938 208.344 27.7852 207.594 26.8711C206.867 25.957 206.27 24.8672 205.801 23.6016ZM226.367 27.5391C226.484 28.2422 226.438 28.793 226.227 29.1914C226.039 29.5898 225.758 29.8828 225.383 30.0703C225.031 30.2812 224.621 30.3984 224.152 30.4219C223.684 30.4453 223.238 30.4219 222.816 30.3516C222.582 30.0234 222.371 29.6133 222.184 29.1211C221.996 28.6289 221.82 28.125 221.656 27.6094C221.492 27.0703 221.34 26.543 221.199 26.0273C221.082 25.5117 220.977 25.0547 220.883 24.6562C221 24.375 221.07 24.0586 221.094 23.707C221.141 23.332 221.164 22.957 221.164 22.582C221.188 22.207 221.199 21.832 221.199 21.457C221.223 21.0586 221.258 20.6836 221.305 20.332C221.469 19.3477 221.703 18.4102 222.008 17.5195C222.336 16.6289 222.594 15.7031 222.781 14.7422C222.828 14.5312 222.805 14.332 222.711 14.1445C222.641 13.957 222.629 13.7812 222.676 13.6172C222.699 13.5234 222.77 13.4648 222.887 13.4414C223.004 13.3945 223.074 13.3125 223.098 13.1953C223.168 12.9375 223.18 12.7266 223.133 12.5625C223.109 12.3984 223.156 12.1992 223.273 11.9648C223.391 11.7773 223.531 11.5078 223.695 11.1562C223.883 10.7813 223.953 10.3945 223.906 9.99609C224.117 9.85547 224.316 9.69141 224.504 9.50391C224.691 9.31641 224.879 9.15234 225.066 9.01172C225.277 8.84766 225.5 8.70703 225.734 8.58984C225.992 8.47266 226.297 8.41406 226.648 8.41406C226.836 8.64844 226.953 8.90625 227 9.1875C227.07 9.46875 227.129 9.75 227.176 10.0312C227.246 10.3125 227.34 10.582 227.457 10.8398C227.574 11.0742 227.773 11.2617 228.055 11.4023C228.055 11.5898 228.055 11.8242 228.055 12.1055C228.055 12.3867 228.066 12.668 228.09 12.9492C228.113 13.207 228.16 13.4531 228.23 13.6875C228.324 13.8984 228.465 14.0391 228.652 14.1094C228.23 15.2344 227.832 16.3477 227.457 17.4492C227.105 18.5508 226.812 19.6641 226.578 20.7891C226.344 21.8906 226.191 23.0039 226.121 24.1289C226.074 25.2539 226.156 26.3906 226.367 27.5391ZM237.652 23.6016C237.441 23.6484 237.289 23.7773 237.195 23.9883C237.102 24.1758 237.008 24.375 236.914 24.5859C236.844 24.7969 236.762 24.9961 236.668 25.1836C236.598 25.3477 236.48 25.4297 236.316 25.4297C236.293 25.6172 236.223 25.7812 236.105 25.9219C236.012 26.0625 235.918 26.2148 235.824 26.3789C235.73 26.5195 235.66 26.6836 235.613 26.8711C235.566 27.0352 235.59 27.2344 235.684 27.4688C235.496 27.6094 235.379 27.8086 235.332 28.0664C235.285 28.3242 235.227 28.5703 235.156 28.8047C235.109 29.0391 235.016 29.2383 234.875 29.4023C234.734 29.5664 234.477 29.6367 234.102 29.6133C234.031 29.707 234.02 29.7656 234.066 29.7891C234.113 29.8125 234.148 29.8945 234.172 30.0352C233.914 29.9883 233.715 30 233.574 30.0703C233.457 30.1641 233.305 30.2227 233.117 30.2461C232.672 30.1055 232.297 29.8594 231.992 29.5078C231.711 29.1562 231.453 28.7695 231.219 28.3477C231.008 27.9023 230.809 27.457 230.621 27.0117C230.457 26.5664 230.293 26.1797 230.129 25.8516C230.199 25.5938 230.211 25.3477 230.164 25.1133C230.117 24.8555 230.035 24.6445 229.918 24.4805C231.066 22.043 232.32 19.4414 233.68 16.6758C235.039 13.9102 236.328 11.1797 237.547 8.48438C238.086 8.69531 238.613 8.94141 239.129 9.22266C239.668 9.48047 240.148 9.78516 240.57 10.1367C241.016 10.4883 241.391 10.8984 241.695 11.3672C242 11.8125 242.199 12.3164 242.293 12.8789C242.246 13.0195 242.188 13.0781 242.117 13.0547C242.07 13.0078 242.023 13.0195 241.977 13.0898C242.07 13.207 242.117 13.2891 242.117 13.3359C242.141 13.3828 242.141 13.4297 242.117 13.4766C242.117 13.5234 242.117 13.5938 242.117 13.6875C242.117 13.7578 242.152 13.8633 242.223 14.0039C242.129 13.9805 242.059 13.9922 242.012 14.0391C241.988 14.0859 241.918 14.0859 241.801 14.0391C241.895 14.2969 241.918 14.5078 241.871 14.6719C241.848 14.8359 241.801 14.9883 241.73 15.1289C241.66 15.2461 241.602 15.3867 241.555 15.5508C241.508 15.6914 241.52 15.8789 241.59 16.1133C241.52 16.1133 241.461 16.1367 241.414 16.1836C241.391 16.207 241.367 16.2422 241.344 16.2891C241.32 16.3125 241.285 16.3477 241.238 16.3945C241.215 16.418 241.168 16.418 241.098 16.3945C241.168 16.9102 241.191 17.4258 241.168 17.9414C241.145 18.457 241.121 18.9844 241.098 19.5234C241.098 20.0391 241.109 20.5898 241.133 21.1758C241.156 21.7383 241.238 22.3242 241.379 22.9336C242.223 22.4414 242.891 21.8086 243.383 21.0352C243.898 20.2617 244.309 19.3945 244.613 18.4336C244.941 17.4727 245.188 16.4414 245.352 15.3398C245.516 14.2383 245.691 13.1133 245.879 11.9648C246.09 11.7539 246.254 11.4961 246.371 11.1914C246.488 10.8867 246.594 10.5703 246.688 10.2422C246.781 9.89062 246.875 9.55078 246.969 9.22266C247.062 8.87109 247.18 8.55469 247.32 8.27344C247.672 8.32031 247.965 8.4375 248.199 8.625C248.457 8.78906 248.691 8.97656 248.902 9.1875C249.113 9.375 249.336 9.5625 249.57 9.75C249.805 9.91406 250.098 10.0195 250.449 10.0664C250.73 10.4648 250.988 10.8516 251.223 11.2266C251.457 11.6016 251.609 12 251.68 12.4219C251.562 12.6094 251.469 12.8203 251.398 13.0547C251.352 13.2891 251.293 13.5234 251.223 13.7578C251.152 13.9922 251.059 14.2148 250.941 14.4258C250.824 14.6133 250.66 14.7773 250.449 14.918C250.379 15.5273 250.285 16.0898 250.168 16.6055C250.074 17.0977 249.969 17.5898 249.852 18.082C249.758 18.5742 249.676 19.0898 249.605 19.6289C249.535 20.1445 249.512 20.7188 249.535 21.3516C249.348 21.8906 249.148 22.4648 248.938 23.0742C248.727 23.6836 248.562 24.2344 248.445 24.7266C248.07 25.0312 247.777 25.3945 247.566 25.8164C247.355 26.2383 247.133 26.6602 246.898 27.082C246.805 27.1758 246.746 27.1992 246.723 27.1523C246.699 27.1055 246.617 27.0703 246.477 27.0469C246.5 27.1406 246.5 27.2109 246.477 27.2578C246.453 27.3047 246.418 27.3516 246.371 27.3984C246.348 27.4219 246.324 27.4688 246.301 27.5391C246.301 27.6094 246.324 27.7031 246.371 27.8203C246.043 27.9609 245.75 28.1602 245.492 28.418C245.234 28.6758 244.953 28.9102 244.648 29.1211C244.367 29.332 244.016 29.4727 243.594 29.543C243.195 29.6133 242.668 29.5312 242.012 29.2969C241.051 28.5938 240.195 27.7852 239.445 26.8711C238.719 25.957 238.121 24.8672 237.652 23.6016ZM275.691 23.6719C275.129 24.6797 274.391 25.4648 273.477 26.0273C272.562 26.5664 271.555 27.0234 270.453 27.3984C269.352 27.75 268.191 28.0664 266.973 28.3477C265.777 28.6289 264.617 28.9922 263.492 29.4375C263.164 29.4375 262.871 29.4492 262.613 29.4727C262.379 29.4961 262.145 29.5312 261.91 29.5781C261.699 29.6016 261.488 29.6367 261.277 29.6836C261.066 29.707 260.832 29.7305 260.574 29.7539C260.48 29.7305 260.422 29.7539 260.398 29.8242C260.375 29.8711 260.34 29.918 260.293 29.9648C259.895 30.0352 259.531 30.0703 259.203 30.0703C258.898 30.0703 258.641 30.0703 258.43 30.0703C258.148 30.0703 257.855 30.1055 257.551 30.1758C257.27 30.2695 257.012 30.3047 256.777 30.2812C255.02 30.1875 253.637 29.5664 252.629 28.418C251.645 27.2461 251.094 25.6289 250.977 23.5664C251 23.4492 250.977 23.3789 250.906 23.3555C250.859 23.332 250.812 23.2969 250.766 23.25C250.766 23.0156 250.789 22.8164 250.836 22.6523C250.906 22.4883 250.918 22.2773 250.871 22.0195C251.48 20.7305 252.172 19.5352 252.945 18.4336C253.719 17.3086 254.645 16.3242 255.723 15.4805C255.887 15.3398 256.027 15.1992 256.145 15.0586C256.262 14.918 256.367 14.7773 256.461 14.6367C256.578 14.4961 256.707 14.3789 256.848 14.2852C256.988 14.168 257.164 14.0859 257.375 14.0391C257.867 13.4766 258.453 12.9609 259.133 12.4922C259.812 12.0234 260.527 11.5781 261.277 11.1562C262.027 10.7109 262.766 10.2773 263.492 9.85547C264.242 9.41016 264.922 8.91797 265.531 8.37891C265.789 8.49609 265.977 8.53125 266.094 8.48438C266.211 8.4375 266.34 8.4375 266.48 8.48438C266.645 8.83594 266.867 9.08203 267.148 9.22266C267.453 9.36328 267.746 9.51563 268.027 9.67969C268.332 9.82031 268.613 9.99609 268.871 10.207C269.129 10.418 269.328 10.6992 269.469 11.0508C269.328 11.0508 269.258 11.1094 269.258 11.2266C269.281 11.3203 269.316 11.4258 269.363 11.543C269.41 11.6367 269.422 11.7422 269.398 11.8594C269.398 11.9531 269.316 12 269.152 12C269.176 12.1172 269.246 12.1875 269.363 12.2109C269.504 12.2109 269.574 12.2695 269.574 12.3867C269.574 12.5039 269.539 12.5977 269.469 12.668C269.422 12.7383 269.422 12.8555 269.469 13.0195C269 13.3242 268.473 13.6172 267.887 13.8984C267.324 14.1797 266.727 14.4844 266.094 14.8125C265.484 15.1172 264.84 15.457 264.16 15.832C263.504 16.1836 262.859 16.5938 262.227 17.0625C261.594 17.5312 260.949 18.0586 260.293 18.6445C259.637 19.207 259.004 19.8047 258.395 20.4375C257.785 21.0703 257.211 21.7266 256.672 22.4062C256.133 23.0625 255.676 23.7188 255.301 24.375C255.348 24.4922 255.395 24.5859 255.441 24.6562C255.512 24.7031 255.57 24.7852 255.617 24.9023C256.367 24.9492 257.059 24.9492 257.691 24.9023C258.348 24.832 259.004 24.8672 259.66 25.0078C259.73 24.9609 259.777 24.8906 259.801 24.7969C259.824 24.7031 259.883 24.6328 259.977 24.5859C261.312 24.4453 262.555 24.2344 263.703 23.9531C264.852 23.6484 266.023 23.332 267.219 23.0039C267.031 22.9336 266.855 22.875 266.691 22.8281C266.551 22.7578 266.41 22.6992 266.27 22.6523C266.152 22.5352 266.152 22.4414 266.27 22.3711C266.41 22.2773 266.527 22.1836 266.621 22.0898C266.293 21.9023 266.023 21.668 265.812 21.3867C265.625 21.1055 265.508 20.7305 265.461 20.2617C265.602 20.1445 265.672 20.0039 265.672 19.8398C265.672 19.6758 265.602 19.5469 265.461 19.4531C265.367 19.4297 265.309 19.4297 265.285 19.4531C265.262 19.4766 265.238 19.5117 265.215 19.5586C265.215 19.6055 265.203 19.6523 265.18 19.6992C265.156 19.7227 265.098 19.7109 265.004 19.6641C265.027 19.4531 265.074 19.2773 265.145 19.1367C265.238 18.9961 265.309 18.832 265.355 18.6445L267.781 17.0273C268.039 17.2148 268.355 17.4258 268.73 17.6602C269.105 17.8711 269.492 18.0938 269.891 18.3281C270.312 18.5391 270.734 18.7617 271.156 18.9961C271.602 19.207 272.012 19.418 272.387 19.6289C272.715 19.7695 273.008 19.957 273.266 20.1914C273.523 20.4258 273.77 20.6719 274.004 20.9297C274.238 21.1641 274.473 21.3984 274.707 21.6328C274.965 21.8672 275.258 22.0664 275.586 22.2305C275.539 22.5352 275.551 22.7812 275.621 22.9688C275.691 23.1562 275.715 23.3906 275.691 23.6719Z" fill="#FF6F00"/>
</svg>
